<?xml version="1.0" standalone="no"?>
<!DOCTYPE svg PUBLIC "-//W3C//DTD SVG 20010904//EN"
 "http://www.w3.org/TR/2001/REC-SVG-20010904/DTD/svg10.dtd">
<svg version="1.0" xmlns="http://www.w3.org/2000/svg"
 width="2048.000000pt" height="2048.000000pt" viewBox="0 0 2048.000000 2048.000000"
 preserveAspectRatio="xMidYMid meet">

<g transform="translate(0.000000,2048.000000) scale(0.100000,-0.100000)"
fill="#000000" stroke="none">
<path d="M9880 19967 c-3 -3 -70 -8 -150 -11 -153 -7 -616 -49 -735 -66 -38
-6 -135 -20 -215 -31 -205 -29 -232 -33 -450 -78 -316 -65 -565 -125 -765
-186 -44 -13 -102 -29 -130 -35 -27 -6 -63 -17 -80 -24 -16 -8 -84 -30 -150
-51 -181 -56 -544 -189 -643 -235 -24 -11 -62 -28 -85 -36 -155 -59 -711 -327
-927 -447 -25 -14 -72 -40 -105 -58 -33 -17 -71 -40 -84 -50 -13 -11 -28 -19
-32 -19 -8 0 -97 -54 -195 -118 -10 -6 -26 -15 -34 -19 -8 -4 -109 -69 -223
-146 -255 -169 -504 -351 -688 -499 -32 -27 -60 -48 -63 -48 -3 0 -16 -10 -28
-22 -13 -13 -75 -66 -137 -118 -62 -52 -123 -104 -136 -115 -12 -11 -59 -54
-106 -95 -185 -166 -406 -383 -586 -576 -100 -107 -107 -115 -198 -219 -94
-107 -109 -125 -175 -205 -34 -41 -67 -80 -74 -85 -6 -6 -15 -18 -21 -26 -5
-9 -28 -39 -50 -66 -134 -168 -209 -268 -359 -483 -44 -63 -84 -116 -88 -118
-5 -2 -8 -8 -8 -14 0 -6 -16 -33 -35 -59 -19 -27 -35 -51 -35 -52 0 -6 -109
-171 -125 -189 -8 -10 -15 -23 -15 -30 0 -6 -6 -19 -14 -27 -11 -13 -131 -216
-183 -311 -44 -79 -90 -165 -129 -240 -24 -47 -49 -92 -54 -100 -13 -21 -112
-226 -133 -275 -9 -22 -21 -47 -26 -55 -9 -14 -20 -38 -81 -175 -35 -79 -44
-101 -108 -260 -126 -313 -255 -679 -312 -885 -10 -36 -28 -101 -40 -145 -95
-347 -97 -355 -168 -710 -17 -82 -33 -163 -37 -180 -18 -87 -42 -234 -60 -380
-33 -264 -45 -371 -59 -550 -52 -641 -50 -1038 9 -1710 16 -180 22 -239 51
-435 24 -172 34 -242 40 -303 4 -31 10 -60 15 -63 5 -3 9 -18 9 -34 0 -17 5
-49 10 -72 9 -38 25 -111 86 -408 7 -36 38 -157 70 -270 31 -113 64 -234 74
-270 23 -86 195 -599 219 -655 5 -11 23 -58 41 -105 17 -47 43 -112 57 -145
14 -33 31 -73 38 -90 7 -16 22 -51 34 -77 11 -26 21 -51 21 -55 0 -4 18 -43
39 -88 22 -44 58 -120 80 -170 23 -49 46 -99 52 -109 6 -11 47 -90 90 -175 81
-161 113 -221 189 -354 25 -43 52 -90 60 -105 13 -23 59 -99 154 -255 33 -54
166 -259 205 -315 20 -29 41 -60 46 -70 6 -9 13 -19 16 -22 3 -3 21 -27 39
-55 19 -27 38 -54 42 -60 5 -5 31 -41 60 -80 106 -144 143 -190 155 -198 7 -4
13 -12 13 -18 0 -9 49 -73 129 -169 63 -75 275 -324 286 -336 5 -6 53 -58 105
-115 228 -248 560 -570 810 -784 58 -49 110 -94 116 -100 6 -5 28 -23 49 -40
21 -16 45 -38 54 -47 8 -10 21 -18 28 -18 6 0 16 -6 20 -13 4 -7 28 -28 53
-47 25 -19 47 -38 48 -42 2 -5 9 -8 14 -8 6 0 18 -7 27 -15 18 -17 106 -85
208 -160 37 -27 72 -53 78 -58 25 -18 119 -83 220 -149 60 -40 123 -83 140
-95 16 -12 48 -32 70 -44 22 -12 42 -25 45 -29 3 -3 31 -22 64 -41 32 -19 73
-43 90 -54 35 -21 246 -143 361 -208 116 -66 413 -215 525 -264 58 -26 112
-51 120 -58 18 -13 26 -17 215 -95 83 -35 168 -71 190 -80 22 -10 60 -25 85
-33 25 -9 95 -34 155 -57 131 -49 386 -137 435 -150 19 -5 62 -18 95 -29 61
-21 134 -42 280 -80 44 -12 136 -36 205 -55 69 -18 186 -45 260 -60 74 -16
155 -32 180 -38 199 -44 338 -66 650 -107 628 -82 1333 -108 1830 -68 470 38
636 55 930 98 36 5 89 12 118 15 29 4 55 10 58 15 3 5 15 9 28 9 37 0 495 92
621 125 284 74 450 121 525 146 30 10 111 36 180 58 188 61 254 84 375 131
216 83 262 100 273 100 5 0 12 3 14 7 2 5 30 19 63 32 109 43 199 82 280 121
44 21 103 48 130 60 79 35 423 211 515 264 25 14 56 32 70 39 62 31 422 247
430 257 3 4 21 15 40 25 19 10 71 42 115 72 44 30 88 59 99 66 10 7 36 24 57
39 21 16 43 28 49 28 5 0 10 4 10 9 0 5 24 24 53 42 28 19 57 37 62 42 10 8
101 76 231 172 86 64 321 251 398 318 125 108 184 160 290 257 80 72 516 508
586 586 102 112 187 209 216 244 16 19 36 41 44 50 13 13 170 206 192 235 4 6
21 26 38 46 16 20 30 41 30 46 0 5 8 16 18 24 25 23 56 61 94 116 18 27 54 75
79 108 25 33 60 84 78 112 18 29 37 53 41 53 4 0 10 8 13 18 5 14 77 123 105
157 4 6 11 17 15 25 4 8 15 27 25 41 9 15 30 48 47 75 16 27 32 51 36 54 9 7
169 276 169 284 0 4 11 22 24 39 32 43 94 156 214 387 104 201 116 226 152
305 40 89 99 215 110 237 5 9 25 57 44 108 20 50 42 104 50 118 8 15 29 65 46
112 43 115 53 140 93 245 19 50 61 171 92 270 31 99 61 189 65 200 5 11 13 36
19 55 6 19 17 58 26 85 8 28 24 85 35 128 32 124 57 218 75 282 10 33 21 78
25 100 4 22 31 155 60 295 29 140 57 280 61 310 5 30 13 84 19 120 5 36 14
103 20 150 5 47 16 132 24 190 13 93 30 296 66 810 13 184 13 493 0 680 -24
353 -63 797 -81 935 -47 352 -46 350 -130 750 -17 83 -35 168 -39 190 -4 22
-18 76 -30 120 -12 44 -30 112 -40 150 -18 67 -46 173 -76 280 -7 28 -16 61
-20 75 -3 14 -12 39 -19 55 -7 17 -23 64 -35 105 -27 88 -52 163 -111 320 -23
63 -55 151 -71 195 -15 44 -32 89 -37 100 -23 47 -61 136 -61 141 0 3 -9 24
-19 47 -10 23 -32 74 -49 112 -59 139 -275 581 -341 700 -59 104 -217 380
-236 410 -11 18 -36 58 -55 90 -19 31 -43 69 -52 84 -9 14 -23 35 -30 47 -30
48 -86 134 -135 207 -29 43 -53 83 -53 88 0 5 -4 9 -9 9 -4 0 -21 19 -36 43
-59 88 -233 323 -257 345 -10 9 -18 22 -18 28 0 7 -4 14 -8 16 -4 2 -28 30
-54 63 -25 33 -58 74 -73 90 -14 17 -38 46 -53 65 -15 19 -41 51 -59 70 -17
19 -42 48 -55 65 -13 16 -30 37 -38 46 -8 8 -44 49 -80 89 -201 228 -604 631
-796 797 -96 83 -141 121 -161 140 -13 11 -41 35 -63 53 -21 17 -48 39 -58 48
-93 80 -212 172 -221 172 -6 0 -14 6 -18 13 -4 7 -28 28 -53 47 -25 19 -46 38
-48 42 -2 5 -8 8 -14 8 -7 0 -78 51 -163 118 -5 4 -32 23 -60 42 -27 19 -51
37 -53 42 -2 4 -8 8 -12 8 -5 0 -72 42 -149 94 -77 52 -173 115 -213 140 -193
120 -287 176 -294 176 -4 0 -15 6 -23 14 -50 44 -772 416 -807 416 -4 0 -15 6
-23 13 -9 8 -59 31 -111 52 -52 21 -99 42 -105 45 -5 4 -28 13 -50 20 -22 7
-67 25 -100 40 -53 24 -86 37 -175 72 -13 5 -51 19 -85 30 -33 11 -64 24 -70
28 -5 4 -35 15 -65 25 -30 10 -84 28 -120 40 -79 28 -376 121 -445 141 -251
71 -463 124 -671 168 -227 49 -298 63 -384 76 -30 4 -98 15 -150 24 -150 24
-524 67 -760 86 -74 6 -160 13 -190 16 -76 7 -904 17 -910 11z m1050 -225 c47
-6 137 -16 200 -22 63 -6 147 -15 185 -20 39 -5 147 -19 240 -30 214 -27 355
-49 530 -87 39 -8 93 -19 120 -25 28 -5 66 -14 85 -18 19 -5 80 -19 135 -30
120 -26 303 -73 365 -94 25 -8 72 -22 105 -31 138 -37 294 -84 313 -95 10 -5
53 -21 97 -34 100 -32 303 -102 330 -115 11 -6 43 -19 70 -29 106 -42 211 -85
274 -114 36 -16 75 -33 86 -38 68 -27 111 -47 199 -88 123 -58 489 -242 533
-268 81 -49 147 -86 166 -95 12 -5 40 -20 62 -34 22 -14 56 -34 75 -45 42 -24
48 -28 175 -110 55 -36 105 -67 110 -69 6 -2 48 -30 95 -61 239 -160 270 -181
411 -287 38 -29 71 -53 73 -53 2 0 17 -11 32 -24 25 -21 85 -69 188 -149 80
-63 152 -123 159 -134 4 -7 14 -13 22 -13 8 0 18 -6 22 -13 4 -6 42 -41 83
-77 41 -36 80 -69 86 -75 6 -5 48 -44 94 -85 227 -203 697 -691 866 -900 16
-19 31 -37 34 -40 4 -3 58 -70 121 -150 163 -205 270 -349 399 -535 38 -55 74
-105 79 -112 6 -7 11 -14 11 -17 0 -3 20 -36 45 -73 25 -37 45 -73 45 -80 0
-7 4 -13 9 -13 5 0 20 -17 32 -37 13 -21 34 -54 46 -73 13 -19 26 -42 30 -50
3 -8 18 -33 32 -55 14 -22 30 -47 36 -56 21 -33 56 -96 88 -154 18 -33 50 -91
71 -130 77 -137 246 -468 246 -479 0 -3 14 -34 31 -68 98 -200 277 -641 354
-873 20 -60 40 -119 44 -130 31 -80 81 -243 136 -445 20 -74 43 -155 50 -180
7 -25 18 -65 24 -90 34 -147 42 -180 52 -230 6 -30 15 -73 19 -95 4 -22 21
-107 38 -190 41 -198 78 -444 103 -685 4 -47 13 -123 18 -170 34 -295 44 -508
44 -930 0 -419 -11 -642 -43 -925 -5 -44 -12 -100 -15 -125 -3 -25 -10 -88
-16 -140 -19 -172 -60 -443 -80 -540 -11 -52 -28 -138 -39 -190 -21 -101 -49
-231 -74 -344 -32 -144 -186 -672 -215 -741 -5 -11 -19 -51 -31 -90 -12 -38
-28 -84 -36 -102 -8 -17 -14 -36 -14 -41 0 -5 -14 -43 -30 -83 -17 -41 -44
-110 -59 -154 -34 -94 -46 -122 -120 -288 -11 -24 -29 -66 -39 -93 -39 -96
-219 -466 -248 -509 -8 -11 -14 -25 -14 -31 0 -7 -33 -70 -74 -141 -40 -71
-88 -156 -105 -188 -18 -33 -45 -80 -61 -105 -16 -25 -36 -58 -45 -75 -19 -36
-27 -50 -84 -140 -24 -39 -47 -72 -51 -75 -4 -3 -15 -20 -24 -38 -9 -18 -40
-66 -69 -108 -29 -41 -56 -84 -62 -94 -5 -11 -13 -20 -17 -20 -5 0 -8 -4 -8
-10 0 -7 -83 -127 -142 -205 -21 -27 -106 -143 -131 -178 -16 -22 -34 -45 -40
-52 -7 -6 -41 -49 -77 -95 -116 -148 -310 -376 -416 -486 -21 -23 -75 -81
-119 -129 -91 -99 -326 -333 -417 -415 -34 -30 -93 -85 -132 -122 -38 -38 -72
-68 -74 -68 -3 0 -26 -19 -51 -42 -67 -61 -109 -97 -166 -142 -27 -22 -58 -48
-70 -57 -34 -30 -63 -53 -97 -79 -18 -14 -55 -43 -83 -65 -27 -22 -87 -67
-131 -100 -244 -179 -294 -215 -303 -215 -5 0 -11 -3 -13 -8 -3 -8 -188 -132
-228 -152 -14 -7 -27 -16 -30 -19 -9 -12 -198 -131 -207 -131 -5 0 -25 -12
-44 -26 -19 -14 -43 -30 -54 -35 -11 -5 -33 -18 -50 -29 -16 -10 -52 -30 -80
-44 -27 -15 -77 -42 -110 -61 -33 -20 -112 -62 -175 -94 -63 -32 -137 -70
-165 -85 -68 -35 -286 -137 -376 -176 -80 -34 -109 -47 -179 -78 -81 -36 -124
-53 -195 -79 -38 -13 -85 -31 -104 -40 -53 -24 -253 -95 -284 -100 -15 -3 -30
-9 -33 -14 -3 -5 -14 -9 -25 -9 -10 0 -27 -4 -37 -9 -28 -15 -155 -57 -277
-91 -16 -5 -70 -20 -120 -34 -49 -14 -112 -32 -140 -39 -100 -29 -242 -65
-325 -81 -47 -10 -101 -21 -120 -26 -19 -5 -62 -14 -95 -20 -33 -6 -87 -18
-120 -25 -129 -29 -577 -95 -740 -109 -27 -2 -113 -11 -190 -19 -331 -35 -475
-42 -895 -41 -234 0 -490 6 -570 13 -238 19 -361 31 -430 41 -36 5 -146 19
-245 30 -193 23 -468 65 -525 81 -19 5 -91 20 -160 34 -251 50 -326 68 -610
147 -207 57 -387 112 -455 139 -22 8 -94 32 -110 35 -44 10 -394 146 -595 231
-152 64 -187 80 -380 170 -130 60 -366 182 -450 231 -19 11 -66 37 -105 57
-38 20 -113 64 -166 96 -53 32 -101 59 -108 59 -6 0 -11 5 -11 10 0 6 -5 10
-10 10 -15 0 -170 102 -170 112 0 4 -7 8 -15 8 -8 0 -44 20 -79 45 -36 25 -69
45 -75 45 -5 0 -11 4 -13 8 -3 7 -165 123 -206 147 -9 6 -42 28 -72 51 -30 22
-109 81 -175 130 -66 49 -127 96 -135 104 -9 9 -34 29 -55 45 -22 17 -42 32
-45 35 -4 4 -79 64 -118 95 -7 5 -21 17 -30 26 -9 9 -51 45 -92 80 -41 35 -80
68 -86 74 -6 5 -65 59 -130 119 -132 122 -490 479 -543 541 -18 22 -60 68 -92
101 -33 34 -59 65 -59 68 0 3 -12 18 -28 33 -48 49 -193 221 -272 323 -14 18
-32 40 -40 49 -8 9 -40 51 -71 92 -31 41 -63 82 -70 90 -8 8 -30 37 -49 64
-19 28 -38 52 -42 53 -4 2 -8 9 -8 15 0 6 -8 20 -19 31 -10 12 -47 64 -83 116
-35 52 -85 126 -111 163 -26 37 -55 82 -65 100 -9 18 -36 60 -60 94 -23 34
-42 64 -42 66 0 2 -20 35 -45 73 -25 37 -45 72 -45 77 0 4 -10 23 -23 40 -35
50 -46 69 -69 117 -11 25 -33 63 -47 85 -73 113 -344 662 -407 825 -9 25 -20
50 -24 55 -13 17 -173 419 -196 490 -7 22 -33 99 -59 170 -54 155 -76 225
-115 365 -16 58 -38 134 -49 170 -44 141 -100 374 -131 540 -4 25 -18 88 -29
140 -30 132 -38 177 -60 320 -18 115 -28 189 -51 390 -5 41 -11 91 -14 110
-38 254 -56 590 -56 1045 0 447 16 749 55 1035 3 19 9 73 15 120 16 145 52
406 70 500 5 30 14 80 19 110 8 50 15 78 41 190 5 19 18 85 30 145 12 61 25
119 29 130 4 11 24 85 44 165 32 128 77 288 136 485 18 61 22 72 46 135 8 19
19 53 26 75 6 22 16 51 21 65 6 14 21 57 35 95 27 76 117 310 139 363 8 17 21
49 30 70 9 20 24 55 33 77 10 22 33 76 51 120 19 44 38 82 42 83 4 2 8 8 8 14
0 12 54 129 107 233 96 185 133 261 133 273 0 6 4 12 9 12 5 0 11 8 15 18 3 9
21 44 40 77 19 33 45 78 57 100 12 22 41 73 65 112 24 40 44 77 44 83 0 5 3
10 8 10 4 0 23 28 41 63 19 34 37 64 40 67 3 3 11 14 18 25 45 74 80 130 93
150 30 45 171 251 203 296 99 140 136 190 182 249 28 36 94 119 146 185 105
134 109 138 206 250 39 44 85 98 104 119 202 235 647 680 846 845 15 13 46 40
69 60 22 20 64 56 93 81 30 25 59 50 65 55 10 10 194 155 290 230 21 17 64 48
95 70 31 22 83 61 116 86 92 71 586 399 600 399 2 0 53 30 112 67 59 36 128
77 153 90 25 13 70 38 102 56 123 70 151 85 233 123 33 15 62 31 65 34 6 6 32
18 240 118 164 78 189 89 280 127 69 29 96 40 175 73 248 105 644 243 895 313
58 16 125 36 150 44 63 21 183 53 260 70 36 8 128 28 205 45 408 90 634 128
975 165 25 2 83 9 130 15 141 16 308 32 435 40 168 11 1142 5 1245 -8z"/>
<path d="M10081 19053 c-78 -2 -140 -8 -148 -15 -7 -6 -13 -30 -13 -54 0 -50
22 -78 57 -71 48 9 53 -15 53 -280 0 -155 -4 -243 -10 -244 -5 -1 -14 -3 -20
-4 -5 -1 -21 -3 -35 -4 -24 -1 -25 -4 -25 -60 0 -35 5 -63 13 -69 8 -7 67 -8
172 -4 l160 7 1 55 c2 74 -1 78 -49 82 l-42 3 -8 230 c-10 304 -11 289 38 295
l40 5 3 59 c3 60 -6 78 -38 74 -8 -1 -75 -4 -149 -5z"/>
<path d="M10464 19046 c-3 -9 -54 -676 -58 -761 l-1 -30 71 -3 70 -3 18 243
c10 134 21 248 25 255 12 21 30 -1 50 -62 10 -33 45 -132 76 -220 31 -88 61
-175 66 -192 13 -42 34 -53 107 -53 69 0 72 4 72 85 0 30 7 127 14 217 27 300
38 480 29 488 -12 12 -106 21 -120 12 -8 -5 -18 -75 -29 -203 -9 -106 -20
-198 -25 -203 -12 -13 -43 65 -136 334 -14 41 -31 80 -37 87 -15 15 -186 24
-192 9z"/>
<path d="M9172 18991 c-61 -11 -64 -16 -52 -102 5 -41 14 -114 19 -164 5 -49
19 -160 31 -245 11 -85 24 -184 28 -220 7 -61 9 -65 33 -68 48 -6 372 37 385
50 9 10 9 28 2 76 -6 34 -14 62 -18 62 -3 0 -58 -7 -120 -15 -93 -12 -117 -13
-127 -2 -14 14 -29 126 -63 457 -17 161 -21 175 -50 176 -14 1 -44 -1 -68 -5z"/>
<path d="M11324 18974 c-139 -49 -245 -271 -231 -484 10 -156 73 -263 185
-312 65 -29 189 -29 253 0 42 18 48 25 53 59 22 146 21 150 -25 114 -55 -43
-177 -69 -194 -41 -3 6 -14 10 -23 10 -24 0 -61 59 -78 125 -21 81 -2 212 43
300 31 59 61 79 128 83 54 4 68 1 104 -22 23 -15 51 -43 63 -62 21 -35 35 -43
43 -21 8 21 21 153 17 166 -7 21 -94 73 -146 87 -65 17 -139 17 -192 -2z"/>
<path d="M8675 18916 l-60 -11 -6 -45 c-4 -25 -14 -130 -23 -235 -9 -104 -21
-230 -26 -280 -5 -49 -13 -130 -16 -179 l-7 -89 62 6 c92 10 101 17 103 85 2
78 2 80 13 91 6 5 49 18 97 27 71 14 90 15 103 4 8 -7 15 -18 15 -24 0 -6 10
-33 22 -60 l23 -48 64 6 c35 3 69 10 76 16 13 11 8 60 -6 60 -5 0 -9 4 -9 10
0 5 -40 92 -88 192 -49 101 -97 201 -107 223 -58 129 -119 251 -129 257 -14 9
-26 9 -101 -6z m92 -288 c43 -92 73 -160 73 -168 0 -15 -33 -28 -76 -32 l-39
-3 -3 99 c-2 64 1 103 9 112 16 19 24 18 36 -8z"/>
<path d="M12113 18837 c-9 -11 -76 -274 -87 -342 -3 -16 -10 -48 -16 -70 -6
-22 -17 -69 -25 -105 -7 -36 -22 -104 -33 -152 -10 -48 -16 -91 -13 -96 9 -15
130 -37 141 -26 9 9 54 202 67 281 8 51 19 54 118 32 113 -24 121 -31 102 -90
-23 -69 -60 -266 -54 -282 6 -17 127 -41 140 -28 7 7 26 79 47 176 38 186 108
480 135 572 6 19 2 23 -32 32 -21 6 -57 13 -80 17 -41 6 -42 6 -52 -32 -5 -22
-18 -79 -27 -127 -25 -127 -21 -124 -138 -94 -54 14 -100 28 -103 31 -5 4 18
113 48 227 14 54 12 57 -28 68 -75 18 -101 20 -110 8z"/>
<path d="M8178 18821 c-26 -9 -49 -19 -53 -23 -7 -6 19 -115 36 -153 5 -11 13
-38 18 -60 5 -22 17 -70 27 -107 10 -38 14 -71 10 -75 -9 -9 -64 50 -180 191
-45 54 -90 110 -102 124 l-20 24 -85 -21 c-46 -12 -88 -26 -92 -30 -7 -7 13
-88 95 -376 11 -38 23 -86 28 -105 4 -19 20 -71 33 -114 14 -43 28 -95 32
-115 10 -62 16 -66 72 -51 74 20 84 33 68 83 -13 45 -39 138 -56 202 -6 22
-15 54 -21 70 -10 30 -25 88 -35 138 -4 20 -1 27 10 27 9 0 20 -6 24 -14 4 -8
22 -29 38 -48 17 -18 56 -66 88 -105 31 -40 68 -84 82 -99 14 -15 25 -30 25
-33 0 -3 18 -26 40 -49 22 -24 40 -47 40 -52 0 -16 35 -20 85 -10 89 18 89 18
55 144 -16 61 -38 137 -49 170 -11 34 -38 131 -61 216 -80 297 -70 280 -152
251z"/>
<path d="M12948 18601 c-53 -11 -131 -67 -174 -125 -41 -55 -99 -181 -109
-239 -4 -20 -11 -40 -16 -43 -17 -10 -10 -157 10 -211 57 -156 202 -232 354
-188 155 45 287 281 287 512 0 86 -18 137 -70 203 -56 71 -183 112 -282 91z
m161 -187 l34 -37 -6 -91 c-7 -114 -32 -190 -88 -272 -87 -128 -228 -102 -246
46 -6 56 18 167 54 246 23 51 82 123 118 143 37 21 97 6 134 -35z"/>
<path d="M7315 18571 c-134 -33 -212 -126 -222 -267 -7 -89 8 -174 50 -274 74
-181 189 -276 328 -274 110 3 216 69 248 156 7 18 17 41 22 50 15 30 10 171
-10 250 -40 160 -153 314 -256 351 -52 18 -108 20 -160 8z m87 -151 c91 -26
173 -176 184 -340 7 -92 -12 -136 -68 -163 -48 -24 -87 -16 -135 26 -35 31
-103 155 -103 189 0 9 -4 19 -9 22 -5 4 -12 44 -16 91 -7 76 -5 87 15 120 20
33 61 64 85 65 6 0 26 -5 47 -10z"/>
<path d="M13511 18295 c-28 -58 -51 -109 -51 -112 0 -4 -9 -25 -19 -47 -36
-76 -61 -135 -61 -142 0 -4 -6 -15 -13 -23 -14 -17 -127 -276 -127 -291 0 -8
61 -40 160 -83 19 -8 75 -34 124 -56 49 -23 90 -41 92 -41 7 0 42 76 48 106 8
35 -9 51 -79 74 -22 7 -61 23 -87 37 -51 25 -61 49 -35 88 7 11 20 36 27 55
15 38 45 106 86 198 69 150 116 258 117 271 2 16 -61 55 -105 66 -26 7 -29 3
-77 -100z"/>
<path d="M6775 18349 c-136 -60 -213 -98 -220 -108 -7 -13 34 -101 51 -108 6
-2 23 1 37 6 47 18 42 24 156 -222 17 -37 31 -71 31 -76 0 -4 13 -33 29 -64
47 -91 47 -104 6 -124 -42 -20 -43 -31 -9 -93 l26 -48 97 43 c53 24 115 53
138 64 23 12 46 21 51 21 21 0 19 28 -4 79 -22 46 -27 51 -47 45 -36 -13 -69
-10 -78 6 -12 22 -97 205 -163 354 -36 81 -35 112 4 121 17 4 30 12 30 18 0
19 -24 77 -32 77 -4 0 -8 9 -8 20 0 26 -12 25 -95 -11z"/>
<path d="M6216 18086 c-191 -98 -253 -136 -219 -136 5 0 20 -22 34 -50 13 -27
31 -50 39 -50 8 0 39 14 69 30 84 46 94 43 139 -47 21 -43 57 -115 80 -160 23
-44 42 -86 42 -92 0 -6 5 -11 10 -11 6 0 10 -6 11 -12 0 -7 15 -42 34 -78 19
-36 41 -80 49 -97 17 -38 26 -39 81 -13 22 11 45 19 51 20 27 0 20 36 -27 132
-27 57 -54 110 -59 119 -36 66 -170 339 -170 348 0 6 34 28 75 48 41 21 75 43
75 51 0 7 -10 36 -21 63 -18 41 -25 49 -48 48 -14 0 -125 -51 -245 -113z"/>
<path d="M14006 18138 l-27 -52 30 -26 c17 -14 31 -34 31 -45 0 -12 -23 -66
-52 -120 -28 -55 -77 -149 -107 -210 -60 -117 -64 -121 -127 -100 -18 6 -26
-1 -48 -40 -14 -26 -26 -53 -26 -60 0 -16 285 -159 299 -150 12 7 51 87 51
105 0 6 -11 15 -25 20 -14 5 -28 17 -31 25 -6 14 12 73 25 85 3 3 48 90 100
193 91 183 94 189 120 182 57 -14 65 -11 88 30 36 63 37 69 24 73 -8 3 -73 35
-147 73 -73 38 -138 69 -142 69 -5 0 -21 -23 -36 -52z"/>
<path d="M14400 17830 c-41 -72 -87 -152 -102 -178 -15 -26 -35 -61 -44 -79
-9 -18 -22 -37 -30 -44 -8 -6 -14 -20 -14 -30 0 -11 -4 -19 -10 -19 -5 0 -10
-6 -10 -14 0 -7 -9 -24 -19 -38 -23 -28 -81 -141 -81 -156 0 -14 88 -64 106
-60 9 2 27 23 41 48 14 25 44 77 67 115 23 39 48 84 56 100 8 17 34 61 57 98
49 77 69 80 59 8 -9 -59 -12 -90 -26 -241 -6 -69 -15 -154 -19 -190 -5 -39 -5
-70 1 -77 14 -17 94 -63 111 -63 12 0 65 75 103 145 6 11 37 65 69 120 97 166
135 234 135 239 0 2 23 41 51 86 56 92 56 92 -18 136 -45 26 -47 26 -59 8 -7
-11 -17 -24 -21 -30 -15 -19 -32 -49 -58 -99 -15 -27 -32 -59 -38 -70 -7 -11
-25 -43 -41 -70 -50 -85 -67 -80 -55 13 16 117 29 249 31 316 3 67 2 70 -27
87 -16 11 -37 22 -45 25 -8 4 -22 13 -30 20 -8 7 -26 15 -40 18 -23 6 -30 -3
-100 -124z"/>
<path d="M5691 17794 c-30 -18 -59 -35 -64 -37 -15 -5 25 -176 111 -477 16
-58 42 -152 57 -210 15 -58 31 -109 35 -113 9 -10 119 50 126 67 2 6 -2 34
-11 61 -29 97 -25 105 65 153 90 48 92 48 155 -17 21 -23 46 -41 55 -40 22 0
113 52 117 66 5 14 -566 583 -582 582 -5 -1 -34 -16 -64 -35z m217 -308 c39
-40 72 -79 72 -88 0 -8 -23 -26 -50 -41 l-50 -27 -9 23 c-5 13 -15 43 -21 68
-7 24 -19 58 -26 76 -13 29 -10 63 5 63 3 0 39 -33 79 -74z"/>
<path d="M9967 17624 c-1 -1 -94 -7 -207 -13 -290 -15 -610 -54 -845 -101 -27
-6 -117 -23 -200 -40 -138 -27 -341 -76 -475 -115 -30 -8 -80 -23 -110 -31
-104 -30 -405 -133 -525 -179 -66 -26 -133 -51 -148 -55 -16 -5 -34 -13 -40
-18 -7 -5 -23 -13 -37 -17 -38 -12 -391 -176 -515 -240 -212 -110 -357 -192
-482 -272 -46 -29 -85 -53 -87 -53 -3 0 -52 -33 -111 -72 -58 -40 -114 -77
-123 -83 -98 -57 -517 -381 -632 -487 -14 -13 -38 -33 -54 -46 -132 -102 -596
-566 -698 -698 -13 -16 -38 -46 -58 -68 -39 -43 -77 -86 -88 -101 -4 -5 -38
-48 -75 -95 -102 -128 -240 -313 -283 -381 -16 -24 -42 -62 -59 -84 -32 -40
-220 -341 -267 -425 -14 -25 -39 -67 -55 -95 -16 -27 -49 -88 -72 -135 -24
-47 -49 -96 -57 -110 -35 -60 -169 -343 -216 -455 -16 -38 -35 -83 -43 -100
-8 -16 -25 -60 -39 -98 -14 -37 -37 -95 -50 -130 -38 -97 -135 -390 -173 -522
-36 -126 -42 -149 -67 -258 -8 -37 -18 -72 -21 -77 -9 -14 -47 -198 -79 -375
-3 -16 -10 -55 -16 -85 -140 -734 -141 -1782 -1 -2525 5 -27 16 -88 24 -135
55 -309 193 -813 306 -1115 16 -44 41 -111 55 -150 15 -38 31 -81 37 -95 6
-14 17 -38 23 -55 7 -16 22 -50 34 -75 12 -25 22 -49 22 -53 0 -4 27 -64 59
-132 33 -68 62 -134 66 -147 4 -12 11 -27 15 -33 4 -5 44 -81 89 -167 44 -87
91 -174 104 -195 13 -21 26 -42 28 -48 2 -5 26 -46 52 -90 64 -108 68 -113
100 -162 15 -23 27 -44 27 -48 0 -3 5 -11 10 -18 6 -7 34 -48 63 -92 28 -44
54 -82 57 -85 4 -3 30 -41 60 -85 29 -44 65 -94 79 -112 55 -67 131 -172 131
-181 0 -6 4 -12 9 -14 5 -1 42 -43 82 -93 60 -75 153 -186 194 -231 6 -6 41
-46 80 -90 86 -97 414 -425 515 -516 109 -96 223 -193 328 -277 51 -41 92 -78
92 -83 0 -4 6 -8 13 -8 6 0 42 -24 79 -53 73 -56 176 -133 213 -157 182 -120
261 -174 263 -181 2 -5 8 -9 14 -9 12 0 132 -72 136 -82 2 -5 8 -8 13 -8 5 0
39 -18 75 -41 37 -22 77 -45 88 -50 12 -5 35 -18 51 -29 17 -10 41 -25 55 -33
49 -28 448 -227 455 -227 3 0 36 -14 73 -31 37 -17 81 -37 97 -44 17 -7 46
-19 65 -28 19 -8 67 -27 105 -42 39 -15 97 -38 130 -51 97 -37 227 -85 265
-95 19 -6 89 -28 155 -49 66 -21 156 -48 200 -60 44 -12 103 -28 130 -35 28
-7 102 -26 165 -40 63 -15 131 -31 150 -36 74 -21 392 -74 620 -104 448 -60
1203 -71 1645 -24 177 19 467 59 580 80 226 43 463 95 565 124 25 7 90 25 145
40 166 44 501 156 642 214 27 11 77 31 113 45 195 75 526 230 735 344 55 30
118 65 140 76 22 12 73 42 114 66 40 25 88 53 105 64 17 10 41 27 55 37 13 10
27 19 31 19 4 0 48 27 96 60 49 33 96 64 104 70 14 9 86 60 256 181 44 31 86
64 93 73 8 9 20 16 27 16 8 0 14 3 14 8 0 4 27 28 60 52 33 25 60 48 60 53 0
4 5 7 10 7 5 0 18 8 28 17 10 10 54 47 97 83 193 160 657 620 795 790 25 30
53 62 62 72 10 9 54 64 99 120 45 57 86 105 90 106 5 2 9 9 9 17 0 7 7 18 15
25 15 12 65 81 227 307 32 45 58 84 58 87 0 3 21 36 48 73 54 78 80 120 88
146 4 9 10 17 14 17 4 0 11 8 14 18 7 18 12 27 59 99 15 24 27 47 27 53 0 5 5
10 10 10 6 0 10 9 10 19 0 11 4 22 9 26 10 6 76 123 142 255 23 47 51 97 61
112 10 14 18 30 18 36 0 5 27 67 61 138 33 71 69 147 78 169 10 22 26 58 35
80 10 22 31 74 46 115 15 41 48 129 73 195 125 334 237 735 301 1070 14 77 33
169 41 205 17 77 60 397 75 560 40 438 40 966 0 1405 -12 129 -69 556 -76 567
-2 3 -13 58 -24 122 -67 391 -219 910 -401 1366 -17 41 -34 84 -39 95 -26 64
-41 97 -69 157 -17 37 -31 70 -31 73 0 15 -226 457 -250 490 -4 6 -23 39 -42
75 -86 159 -327 537 -430 672 -128 169 -148 197 -148 207 0 6 -4 11 -9 11 -4
0 -34 33 -65 73 -79 99 -128 157 -221 261 -44 50 -93 106 -110 125 -53 63
-387 394 -480 476 -49 44 -92 82 -95 85 -17 17 -158 136 -225 189 -44 36 -84
69 -90 75 -5 6 -28 23 -50 38 -22 14 -51 35 -65 46 -54 44 -160 121 -216 158
-32 21 -61 41 -64 44 -19 20 -306 203 -418 266 -112 63 -140 79 -172 98 -19
12 -57 33 -85 46 -27 14 -51 28 -53 33 -2 4 -9 7 -15 7 -7 0 -25 7 -42 16 -76
40 -184 94 -230 114 -27 12 -77 35 -110 50 -33 16 -89 40 -125 55 -36 14 -78
32 -95 40 -65 30 -103 45 -113 45 -8 0 -46 15 -177 69 -36 15 -389 130 -450
146 -33 9 -73 20 -90 25 -119 34 -451 113 -550 131 -66 11 -142 25 -170 31
-27 5 -77 13 -110 18 -33 5 -87 14 -120 19 -103 18 -470 50 -707 61 -189 9
-582 12 -591 4z m705 -214 c314 -21 653 -61 843 -100 22 -5 87 -18 145 -29 58
-11 137 -27 175 -36 39 -9 81 -19 95 -22 60 -12 396 -108 520 -147 218 -70
535 -190 675 -256 22 -11 85 -40 140 -66 175 -81 277 -132 380 -189 55 -31
116 -63 135 -73 19 -9 37 -19 40 -22 3 -3 49 -33 103 -65 54 -33 110 -68 125
-77 15 -10 40 -25 56 -34 16 -9 66 -41 110 -72 45 -31 108 -74 141 -96 171
-113 459 -344 700 -560 89 -79 403 -391 481 -476 140 -155 270 -310 376 -450
23 -30 44 -57 48 -60 7 -6 90 -117 105 -141 6 -9 34 -50 63 -90 76 -107 141
-205 202 -305 19 -31 51 -82 71 -113 68 -107 170 -297 284 -528 47 -95 85
-175 85 -177 0 -3 20 -47 44 -98 37 -79 116 -281 186 -473 58 -160 70 -196 86
-250 19 -71 47 -166 73 -250 40 -130 65 -235 106 -445 14 -74 30 -151 35 -170
16 -64 70 -444 80 -568 6 -67 15 -177 20 -244 11 -133 15 -771 5 -903 -24
-327 -83 -827 -99 -854 -4 -6 -22 -93 -56 -271 -21 -111 -51 -231 -85 -345
-15 -49 -31 -106 -35 -126 -3 -19 -10 -41 -14 -47 -4 -6 -16 -46 -27 -89 -11
-43 -36 -121 -55 -173 -20 -52 -51 -138 -71 -190 -61 -167 -159 -402 -219
-525 -13 -27 -24 -56 -24 -62 0 -7 -4 -13 -10 -13 -5 0 -10 -6 -10 -12 0 -7
-7 -26 -16 -43 -9 -16 -49 -94 -89 -171 -40 -78 -85 -160 -99 -183 -14 -22
-26 -43 -26 -45 0 -8 -122 -208 -147 -242 -13 -17 -23 -33 -23 -36 0 -8 -183
-280 -246 -365 -126 -171 -139 -188 -144 -193 -3 -3 -27 -32 -52 -65 -25 -33
-54 -70 -64 -82 -11 -12 -46 -54 -79 -94 -130 -156 -502 -543 -615 -639 -14
-12 -43 -38 -65 -58 -133 -124 -346 -296 -569 -462 -102 -75 -374 -260 -384
-260 -3 0 -19 -10 -36 -23 -33 -25 -234 -147 -241 -147 -3 0 -34 -18 -70 -40
-36 -22 -72 -40 -80 -40 -7 0 -17 -5 -20 -10 -4 -6 -53 -33 -111 -61 -57 -28
-107 -55 -109 -59 -3 -5 -19 -11 -35 -15 -17 -4 -30 -11 -30 -16 0 -5 -4 -9
-10 -9 -5 0 -38 -13 -72 -29 -186 -86 -357 -155 -678 -273 -30 -11 -71 -26
-90 -33 -19 -8 -118 -37 -220 -65 -102 -29 -203 -58 -225 -65 -22 -7 -65 -19
-95 -25 -30 -7 -71 -16 -90 -21 -52 -14 -226 -49 -299 -60 -35 -5 -67 -11 -71
-14 -17 -11 -357 -57 -550 -76 -113 -11 -297 -23 -410 -27 -247 -8 -732 0
-925 17 -146 13 -540 64 -622 81 -27 6 -70 14 -98 20 -119 22 -393 81 -444 95
-31 8 -85 24 -121 35 -36 11 -96 28 -135 39 -257 74 -649 216 -842 307 -40 18
-76 34 -78 34 -3 0 -87 40 -187 90 -331 163 -515 267 -786 447 -57 37 -126 82
-154 100 -28 18 -60 41 -72 51 -12 11 -64 50 -116 87 -52 37 -97 70 -100 74
-6 8 -83 70 -146 117 -27 20 -51 40 -54 43 -3 4 -36 33 -75 65 -38 32 -104 89
-145 125 -98 86 -444 432 -540 540 -41 46 -79 89 -85 95 -32 35 -119 140 -178
215 -37 47 -73 93 -80 101 -43 51 -176 234 -248 340 -85 125 -229 348 -229
355 0 3 -24 44 -53 92 -89 147 -230 418 -312 598 -15 33 -37 83 -50 110 -12
28 -35 77 -50 110 -15 33 -31 71 -36 85 -4 14 -22 63 -39 110 -18 47 -36 96
-40 110 -5 14 -18 50 -30 80 -11 30 -35 98 -52 150 -17 52 -34 104 -38 115 -5
11 -14 43 -20 70 -7 28 -27 100 -45 160 -43 142 -97 370 -109 455 -3 19 -10
58 -16 85 -36 171 -84 476 -95 605 -68 794 -40 1442 91 2120 9 47 20 105 24
130 12 59 38 176 49 220 5 19 18 69 29 110 10 41 29 107 40 145 12 39 33 111
47 160 15 50 30 98 36 107 5 10 9 25 9 34 0 8 11 43 24 77 13 34 50 132 81
217 32 85 69 180 82 210 80 179 112 249 170 370 35 74 67 142 72 150 4 8 27
50 50 94 24 43 69 123 102 178 32 54 59 100 59 102 0 5 61 106 86 141 11 17
24 37 28 45 6 14 62 100 131 201 46 68 209 293 215 299 4 3 25 30 47 61 23 31
49 64 59 73 10 10 36 41 58 70 183 234 542 606 801 831 38 33 87 76 109 96 23
19 64 53 91 75 28 21 55 44 60 50 6 6 39 32 74 59 36 26 69 52 75 57 15 13
142 105 210 153 32 22 77 54 99 70 23 17 88 60 145 95 57 36 122 77 145 92 23
15 67 41 97 58 30 16 62 35 70 40 26 17 120 70 194 109 39 21 80 43 91 49 35
19 286 138 380 180 50 22 112 50 139 62 54 24 204 83 281 109 28 10 97 35 155
55 255 91 678 205 910 246 36 6 81 15 100 20 129 34 570 89 875 109 179 12
711 12 887 1z"/>
<path d="M11884 15348 c-4 -6 -25 -111 -79 -393 -2 -11 -9 -42 -15 -70 -12
-57 -18 -85 -26 -135 -12 -71 -64 -358 -83 -450 -10 -52 -26 -133 -35 -180 -9
-47 -23 -116 -31 -155 -8 -38 -17 -90 -20 -115 -17 -127 -54 -292 -69 -302 -9
-6 -76 35 -120 74 -31 28 -223 142 -321 191 -123 61 -240 108 -365 146 -58 18
-116 36 -130 41 -120 40 -425 80 -617 80 -111 0 -295 -15 -373 -30 -411 -80
-702 -194 -1005 -396 -111 -73 -153 -106 -284 -221 -72 -63 -98 -74 -123 -50
-31 30 -209 175 -254 207 -42 30 -112 74 -239 150 -109 66 -328 160 -485 209
-171 53 -192 59 -255 71 -33 6 -85 16 -115 21 -175 34 -464 46 -645 29 -538
-51 -989 -226 -1413 -547 -157 -119 -365 -328 -474 -478 -5 -5 -32 -41 -61
-80 -45 -59 -122 -179 -150 -235 -4 -8 -23 -44 -42 -78 -19 -35 -35 -70 -35
-78 0 -8 -4 -14 -10 -14 -5 0 -10 -6 -10 -13 0 -7 -9 -30 -20 -52 -11 -22 -20
-44 -20 -50 0 -5 -12 -35 -26 -65 -26 -55 -77 -214 -96 -300 -6 -25 -14 -63
-19 -85 -53 -226 -72 -532 -49 -775 13 -133 61 -415 80 -465 4 -11 15 -47 25
-80 83 -286 264 -625 470 -880 314 -387 756 -693 1226 -848 77 -26 276 -77
298 -77 30 0 26 -17 -6 -23 -16 -3 -493 -6 -1062 -7 -569 0 -1037 -2 -1040 -5
-2 -3 3 -119 12 -258 9 -138 24 -369 32 -512 9 -143 18 -280 21 -304 l6 -44
206 7 c114 3 245 9 292 11 256 14 484 25 635 30 94 3 334 12 535 20 201 9 536
22 745 30 209 8 495 20 635 25 140 6 359 15 485 20 127 5 331 14 455 19 317
15 635 29 1075 46 209 8 477 19 595 24 118 6 294 13 390 16 96 3 264 10 373
16 207 11 236 7 222 -30 -4 -9 -17 -79 -30 -156 -13 -77 -49 -266 -79 -420
-30 -154 -60 -309 -66 -345 -7 -36 -21 -108 -31 -160 -11 -52 -26 -133 -35
-180 -16 -87 -41 -219 -74 -395 -11 -55 -24 -125 -30 -155 -16 -89 -31 -162
-40 -205 -5 -22 -11 -58 -14 -80 -3 -22 -12 -74 -21 -115 -9 -41 -20 -100 -25
-130 -5 -30 -14 -77 -19 -105 -12 -57 -12 -57 -51 -265 -16 -85 -37 -195 -45
-245 -9 -49 -23 -121 -30 -160 -8 -38 -19 -97 -25 -130 -6 -33 -21 -112 -35
-175 -13 -63 -49 -252 -81 -420 -31 -168 -63 -336 -70 -375 -7 -38 -23 -121
-34 -184 -11 -63 -22 -117 -25 -119 -2 -3 0 -12 5 -22 7 -13 27 -19 77 -23 66
-6 407 -47 548 -67 38 -5 72 -6 75 -2 10 12 28 71 66 217 20 77 40 156 45 175
5 19 13 53 18 75 5 22 19 74 31 115 29 104 106 394 140 530 9 38 25 98 59 225
12 44 43 159 68 255 25 96 60 231 79 300 18 69 40 154 49 190 9 36 20 74 24
85 7 17 36 128 61 235 5 19 15 60 23 90 9 30 20 75 27 100 6 25 29 113 52 195
22 83 46 175 54 205 7 30 22 89 33 130 49 185 65 247 112 425 27 105 61 231
74 280 13 50 37 142 54 205 16 63 46 177 65 252 20 76 42 157 50 180 8 24 24
87 37 141 15 60 30 102 40 107 8 5 154 13 325 19 170 6 406 15 524 21 118 6
442 19 720 30 593 24 947 38 1230 50 113 5 432 18 710 29 278 12 667 28 865
36 198 9 486 20 640 26 154 5 283 13 286 17 4 4 14 30 24 57 28 85 96 279 105
300 13 28 70 206 70 216 0 5 -672 9 -1527 10 -841 1 -1539 4 -1553 9 l-25 7
30 7 c117 27 335 89 370 105 11 5 64 28 118 51 122 51 292 139 411 213 23 14
24 15 88 62 26 19 51 35 57 35 5 0 14 6 18 13 4 7 37 35 73 62 148 114 456
451 524 575 11 19 36 58 56 85 45 61 189 352 225 455 130 371 158 528 159 905
1 269 -7 371 -40 535 -17 81 -69 272 -83 305 -5 11 -22 58 -37 105 -37 111
-172 378 -256 506 -205 313 -483 586 -804 791 -81 51 -306 170 -379 200 -17 7
-63 26 -104 43 -41 16 -82 30 -91 30 -10 0 -35 7 -56 16 -83 35 -342 89 -544
113 -110 13 -343 14 -445 2 -106 -13 -113 -7 -85 80 12 35 34 118 50 184 50
206 77 308 100 380 12 39 26 88 30 110 12 59 51 217 60 240 4 11 13 45 20 75
7 30 20 80 30 110 10 30 20 65 22 78 l3 23 -803 2 c-442 1 -806 -1 -808 -5z
m-5134 -1362 c268 -39 499 -105 705 -201 174 -81 235 -111 270 -138 5 -4 46
-31 90 -59 44 -29 82 -56 83 -60 2 -4 8 -8 14 -8 15 0 216 -168 234 -195 19
-30 16 -43 -22 -77 -42 -37 -64 -35 -106 10 -37 38 -117 97 -243 179 -61 40
-336 183 -435 225 -19 9 -55 25 -80 35 -25 11 -70 26 -100 33 -30 7 -63 17
-72 22 -10 5 -59 15 -110 24 -51 8 -111 22 -133 29 -22 8 -87 16 -145 20 -58
3 -158 11 -222 17 -91 9 -145 9 -235 0 -345 -36 -658 -113 -658 -162 0 -12 15
-15 65 -16 36 0 101 -9 145 -18 44 -10 102 -22 129 -27 27 -4 70 -18 94 -30
25 -11 61 -23 79 -26 18 -3 50 -21 72 -39 31 -27 52 -36 107 -44 38 -6 87 -15
109 -21 56 -15 194 -20 232 -8 23 7 49 7 88 -1 30 -6 101 -13 157 -14 120 -4
260 -37 298 -70 14 -12 37 -30 53 -39 17 -11 27 -26 27 -42 0 -13 5 -27 10
-30 6 -4 56 -10 111 -14 69 -5 104 -12 110 -22 12 -19 11 -29 -3 -33 -53 -15
-112 -41 -126 -55 -9 -9 -34 -25 -54 -35 -37 -19 -50 -48 -28 -61 21 -13 63
-89 52 -93 -6 -2 -28 -27 -49 -55 -21 -29 -52 -66 -70 -83 -28 -26 -32 -35
-27 -66 6 -32 3 -38 -30 -63 -51 -39 -101 -54 -177 -55 -47 0 -70 -5 -79 -15
-7 -8 -22 -15 -34 -15 -12 0 -31 -7 -42 -15 -11 -8 -42 -14 -75 -15 -39 0 -60
-5 -72 -17 -37 -38 -97 -118 -97 -129 0 -6 -11 -17 -25 -24 -23 -12 -29 -11
-55 8 -16 12 -35 22 -43 22 -23 0 -54 41 -96 130 -31 65 -41 97 -41 137 0 53
17 83 46 83 8 0 14 5 14 10 0 6 -11 10 -25 10 -30 0 -48 30 -39 65 5 20 1 30
-16 42 -19 13 -21 21 -15 62 6 41 3 49 -19 70 -14 14 -26 34 -26 46 0 44 -77
91 -167 101 -68 8 -151 57 -153 89 0 11 -7 29 -15 39 -35 47 -8 66 90 66 68 0
78 6 57 38 -22 35 -34 43 -47 32 -6 -5 -44 -15 -85 -21 -61 -10 -79 -18 -98
-41 -13 -15 -32 -28 -42 -28 -10 0 -28 -12 -39 -27 -11 -16 -29 -36 -38 -47
-13 -14 -15 -20 -5 -23 6 -3 12 -11 12 -18 0 -20 -84 -30 -130 -16 -53 16 -81
14 -74 -4 6 -15 53 -32 94 -33 56 -2 112 -28 161 -74 27 -27 49 -52 49 -56 0
-5 21 -23 48 -40 78 -51 112 -87 112 -120 0 -28 27 -58 118 -133 23 -19 8 -44
-36 -59 -40 -14 -45 -14 -56 3 -23 30 -27 18 -6 -20 23 -43 15 -64 -30 -83
-28 -11 -36 -10 -85 14 -36 17 -60 37 -71 57 -15 31 -65 59 -104 59 -21 0 -38
25 -26 37 3 4 23 8 43 10 47 3 93 45 77 70 -7 11 -24 17 -50 17 -29 1 -38 5
-35 16 15 60 11 69 -33 61 -5 -1 -15 7 -23 19 -27 38 -51 25 -69 -36 -12 -41
-22 -57 -40 -64 -31 -12 -31 -44 1 -58 29 -13 32 -38 8 -64 -19 -22 -43 -24
-43 -4 0 9 -12 16 -32 18 -24 2 -36 10 -46 30 -12 26 -16 27 -60 21 -55 -8
-127 -47 -156 -86 -18 -25 -19 -30 -6 -50 7 -12 19 -32 26 -45 6 -13 46 -44
88 -69 42 -24 76 -49 76 -53 0 -5 22 -21 49 -35 46 -25 50 -31 63 -84 11 -46
17 -57 36 -59 19 -3 22 1 22 34 0 33 27 74 50 74 4 0 11 10 17 23 8 17 7 30
-3 49 -10 20 -11 34 -4 53 6 14 10 41 10 58 0 56 10 62 75 48 78 -18 140 -75
150 -137 5 -36 11 -45 32 -50 15 -4 39 0 60 10 20 9 36 16 37 14 0 -2 10 -16
22 -33 11 -16 24 -43 28 -58 3 -15 17 -32 29 -38 13 -6 24 -19 24 -30 1 -11
17 -38 37 -59 79 -88 75 -99 -49 -146 -46 -18 -50 -22 -50 -53 0 -22 6 -36 19
-43 17 -9 15 -13 -24 -49 -30 -27 -47 -36 -54 -29 -5 5 -27 10 -47 10 -24 0
-39 5 -43 15 -3 10 -19 15 -46 15 -33 0 -47 -6 -76 -35 -19 -19 -43 -35 -52
-35 -38 0 -99 -52 -123 -104 -21 -45 -30 -53 -73 -68 -80 -28 -89 -42 -82
-120 9 -86 -7 -98 -47 -36 -9 15 -17 36 -17 46 0 40 -97 88 -156 79 -22 -4
-50 -1 -72 8 -19 8 -38 15 -42 15 -16 0 -62 -49 -56 -59 4 -6 2 -11 -3 -11 -6
0 -11 9 -11 19 0 10 -7 21 -15 25 -11 4 -15 -1 -15 -17 -1 -12 -7 -33 -15 -47
-18 -32 -19 -77 -2 -87 8 -4 17 -23 21 -42 3 -19 11 -40 17 -48 18 -20 92 -16
119 7 27 23 72 26 90 5 9 -11 7 -22 -10 -53 -29 -51 -23 -74 20 -87 74 -22 78
-29 65 -118 -9 -53 6 -80 51 -91 25 -7 29 -31 6 -31 -14 0 -50 24 -71 48 -8 9
-21 17 -28 17 -7 0 -23 21 -35 46 -16 35 -35 55 -77 81 -31 20 -73 51 -93 71
-29 27 -42 33 -62 28 -19 -5 -32 1 -58 24 -18 16 -36 30 -40 30 -13 0 -92 63
-117 93 -13 16 -28 49 -34 75 -8 39 -77 161 -114 199 -15 17 -23 -3 -16 -40 3
-16 1 -27 -6 -27 -6 0 -11 5 -11 12 0 6 -11 26 -25 44 -14 18 -25 42 -25 54 0
12 -11 36 -24 53 -13 18 -29 49 -36 71 -13 40 -25 55 -75 94 -57 45 -85 207
-61 359 6 36 5 62 -4 83 -24 59 -48 36 -106 -102 -19 -45 -41 -96 -48 -113 -8
-16 -19 -50 -26 -74 -6 -24 -16 -51 -21 -60 -16 -30 -78 -305 -96 -426 -12
-85 -16 -181 -15 -330 1 -228 11 -314 71 -597 23 -106 96 -295 179 -463 46
-94 128 -240 143 -259 5 -6 42 -56 83 -112 94 -129 266 -312 379 -404 17 -14
47 -39 67 -56 105 -92 402 -263 605 -349 109 -46 338 -110 485 -136 63 -11
232 -28 368 -36 164 -10 503 36 717 97 227 65 476 179 670 309 122 82 147 111
95 111 -24 0 -36 22 -43 78 -3 24 -17 60 -30 80 -19 28 -27 55 -32 112 -4 41
-18 109 -32 150 -25 72 -25 77 -10 113 27 63 42 53 126 -82 24 -39 48 -71 52
-71 5 0 9 -6 9 -12 1 -20 89 -131 197 -247 24 -25 43 -54 43 -63 0 -35 -211
-205 -390 -315 -250 -154 -442 -236 -710 -306 -269 -70 -360 -81 -660 -81
-327 0 -396 10 -760 110 -134 37 -335 120 -450 185 -19 11 -43 23 -52 26 -10
3 -18 9 -18 14 0 5 -6 9 -13 9 -27 0 -357 237 -413 297 -12 13 -26 23 -33 23
-6 0 -11 7 -11 15 0 8 -4 15 -9 15 -5 0 -38 29 -73 65 -92 93 -107 111 -181
205 -37 47 -71 90 -75 95 -72 90 -197 309 -267 470 -9 22 -24 54 -32 70 -22
43 -90 257 -113 350 -54 225 -64 316 -64 605 0 324 7 388 82 681 52 202 167
469 281 649 22 36 48 79 57 95 28 50 185 249 235 298 11 10 19 22 19 27 0 6 7
10 15 10 8 0 15 6 15 14 0 8 4 16 10 18 5 2 42 35 82 74 40 39 100 92 133 119
33 26 62 51 65 54 3 3 12 11 21 16 9 6 63 42 120 80 123 83 154 101 279 161
52 25 113 54 135 64 45 22 66 30 180 71 44 16 90 29 102 29 12 0 24 4 27 9 3
5 20 11 38 14 18 3 62 12 98 21 73 17 208 40 320 54 108 14 476 7 600 -12z
m3525 4 c83 -11 186 -29 230 -41 44 -11 95 -23 113 -26 18 -3 35 -9 38 -14 3
-5 15 -9 27 -9 58 0 343 -123 504 -217 59 -34 223 -142 239 -157 28 -27 55
-46 63 -46 24 0 29 -91 7 -110 -12 -9 -29 -2 -88 37 -83 55 -442 242 -548 286
-49 20 -209 63 -305 82 -44 9 -102 22 -130 30 -27 7 -99 16 -160 20 -60 3
-139 10 -175 15 -116 17 -220 12 -445 -19 -180 -25 -451 -97 -475 -126 -21
-25 0 -36 63 -34 34 1 98 -6 142 -15 44 -10 107 -22 140 -28 33 -6 67 -16 75
-23 8 -7 42 -20 75 -30 36 -10 72 -28 91 -47 25 -24 45 -31 95 -38 35 -4 91
-15 124 -24 34 -10 75 -14 95 -11 20 3 48 1 63 -4 14 -6 29 -6 32 -2 8 14 67
19 125 11 30 -5 100 -11 155 -14 116 -6 248 -36 285 -65 14 -12 40 -28 58 -37
24 -12 32 -23 32 -44 0 -15 6 -32 13 -37 6 -6 52 -11 100 -12 86 -2 127 -14
127 -37 0 -12 -42 -34 -64 -34 -21 0 -166 -99 -166 -114 0 -8 7 -20 17 -27 9
-8 24 -27 34 -42 17 -29 17 -29 -20 -80 -43 -61 -70 -90 -96 -104 -14 -8 -19
-23 -19 -64 l-1 -53 -63 -33 c-55 -28 -74 -33 -137 -33 -52 0 -76 -4 -85 -15
-7 -8 -22 -15 -34 -15 -11 0 -30 -7 -40 -15 -12 -9 -42 -15 -79 -15 -61 0 -72
-6 -96 -52 -8 -16 -19 -28 -26 -28 -6 0 -21 -20 -33 -45 -26 -54 -45 -64 -81
-41 -14 9 -41 24 -59 32 -39 17 -62 53 -102 156 -35 90 -38 136 -10 171 25 32
25 47 1 47 -22 0 -33 23 -25 54 3 15 -2 28 -15 40 -17 16 -20 27 -15 65 5 42
3 49 -25 75 -20 19 -31 40 -31 57 0 38 -64 74 -148 84 -71 8 -155 56 -160 93
-2 11 -10 26 -18 32 -8 7 -14 23 -14 35 0 21 6 24 83 31 l82 9 0 30 c0 40 -11
46 -59 29 -22 -8 -62 -16 -89 -18 -39 -2 -53 -8 -76 -33 -15 -17 -41 -34 -57
-37 -22 -5 -34 -17 -51 -53 -15 -33 -19 -51 -12 -60 13 -15 -68 -29 -109 -18
-57 14 -92 17 -92 7 0 -19 25 -30 85 -37 92 -11 162 -54 215 -133 8 -12 24
-25 35 -28 11 -4 34 -20 50 -36 17 -17 40 -37 53 -45 15 -11 22 -25 22 -48 0
-28 10 -42 65 -90 36 -32 65 -64 65 -71 0 -19 -45 -46 -75 -46 -23 0 -25 -4
-23 -36 3 -34 1 -37 -37 -50 -37 -12 -43 -11 -92 13 -33 16 -58 37 -68 55 -17
34 -45 51 -95 60 -22 3 -36 12 -38 23 -3 14 4 17 34 17 42 0 94 40 94 72 0 14
-8 18 -40 18 -45 0 -61 19 -39 46 11 14 10 18 -6 30 -10 8 -25 14 -33 14 -7 0
-20 7 -28 15 -36 35 -74 -2 -74 -71 0 -16 -9 -25 -30 -33 -16 -5 -30 -13 -30
-16 0 -17 22 -45 35 -45 27 0 18 -55 -10 -70 -22 -12 -27 -11 -38 2 -6 9 -25
19 -40 22 -17 4 -31 16 -37 32 -9 24 -13 25 -53 19 -59 -10 -131 -49 -157 -85
-12 -16 -27 -30 -33 -30 -7 1 -25 22 -41 48 -27 43 -125 192 -209 315 -17 26
-71 89 -119 139 -109 114 -110 124 -27 193 33 28 70 58 82 69 12 10 38 30 57
45 19 14 37 28 40 32 7 8 163 109 240 156 64 38 99 56 230 115 36 16 74 33 85
38 36 17 139 52 165 57 14 2 34 8 45 13 11 5 34 11 50 15 17 3 46 10 65 14
151 36 226 50 295 56 44 4 82 8 84 11 13 13 351 2 486 -16z m3439 10 c33 -5
90 -14 126 -19 87 -13 228 -40 265 -51 17 -5 50 -14 75 -21 77 -20 205 -62
215 -69 6 -4 21 -11 35 -15 14 -4 57 -22 95 -40 39 -19 77 -36 85 -39 8 -3 22
-10 30 -15 8 -5 31 -16 50 -24 33 -15 81 -43 105 -60 5 -4 62 -41 125 -83 63
-42 123 -84 135 -94 11 -10 47 -41 80 -68 67 -55 207 -190 275 -267 60 -67
219 -280 246 -330 6 -11 30 -52 52 -92 23 -39 50 -87 60 -105 16 -29 77 -170
133 -308 96 -236 160 -688 139 -983 -25 -363 -74 -579 -195 -862 -49 -117 -89
-200 -114 -242 -16 -26 -42 -72 -58 -102 -15 -29 -38 -64 -50 -78 -13 -13 -23
-26 -23 -29 0 -6 -108 -150 -141 -189 -98 -113 -140 -158 -203 -218 -89 -85
-296 -251 -367 -295 -30 -18 -61 -37 -69 -42 -115 -72 -170 -100 -350 -178
-292 -125 -578 -187 -910 -199 -292 -10 -520 20 -830 107 -136 39 -401 146
-480 195 -19 12 -42 24 -50 28 -8 4 -24 13 -35 19 -171 111 -217 143 -222 155
-3 8 0 46 7 85 13 70 30 91 55 72 127 -96 225 -160 305 -203 42 -21 98 -52
125 -68 28 -16 70 -37 95 -48 25 -10 68 -28 95 -40 28 -12 68 -28 90 -35 22
-7 49 -16 60 -20 39 -15 261 -69 325 -80 108 -17 350 -40 431 -40 71 0 115 4
329 31 173 21 401 80 560 146 142 57 355 169 457 240 114 78 135 103 89 103
-33 0 -48 23 -57 86 -5 37 -14 60 -29 72 -17 14 -23 33 -29 102 -8 80 -34 184
-52 204 -10 11 24 102 48 128 14 15 18 37 18 87 0 84 -7 108 -46 157 -32 41
-34 59 -8 121 19 47 -1 87 -39 80 -21 -4 -34 2 -62 29 l-35 34 -165 3 c-149 3
-170 6 -217 28 -29 13 -53 30 -53 37 0 21 -40 93 -71 126 -39 42 -46 93 -19
145 16 33 19 52 14 89 -6 46 -5 50 45 109 36 43 65 67 102 82 41 18 54 30 66
60 11 27 29 46 69 70 62 37 70 62 25 85 -46 24 -51 57 -25 145 l15 53 47 -5
c26 -3 65 -9 88 -13 31 -5 44 -2 58 11 24 25 12 73 -27 107 l-31 26 44 11 c25
7 56 16 70 22 23 10 23 11 6 21 -11 6 -96 16 -190 22 l-171 11 113 5 113 5 30
35 c35 43 35 75 -1 75 -18 0 -26 -6 -28 -21 -4 -29 -30 -50 -70 -57 -39 -8
-47 6 -38 57 5 27 13 37 38 45 17 6 42 11 55 11 19 0 23 4 18 19 -9 30 12 70
41 77 22 6 32 2 52 -21 15 -18 22 -36 19 -52 -3 -16 2 -28 14 -37 20 -14 61
-70 72 -100 6 -15 14 -17 47 -12 22 3 59 9 83 12 53 8 68 20 61 49 -7 27 11
65 31 65 7 0 19 -13 27 -30 15 -34 33 -39 46 -12 7 11 3 31 -9 61 -17 37 -22
42 -42 36 -75 -24 -104 -12 -113 47 -13 74 17 110 118 140 29 8 65 34 115 83
40 38 73 75 73 81 0 26 189 69 335 77 44 2 50 5 53 26 5 31 -24 123 -47 153
-10 13 -29 43 -42 68 -37 69 -92 139 -110 140 -9 0 -32 -18 -53 -40 -20 -22
-41 -40 -46 -40 -9 0 -31 22 -96 98 -30 35 -36 47 -27 60 8 13 22 16 61 14 69
-5 75 0 55 51 -19 51 -40 74 -118 139 -33 27 -82 70 -108 94 -81 75 -272 193
-472 294 -276 138 -336 161 -540 201 -55 11 -122 27 -150 35 -44 12 -193 26
-441 41 -46 3 -140 -2 -217 -12 -76 -9 -142 -13 -148 -10 -12 8 -3 73 18 127
14 35 16 36 86 46 98 13 426 14 501 2z m-599 -420 c22 -11 48 -20 58 -20 23 0
57 -18 78 -41 20 -23 62 -39 102 -39 18 0 64 -9 102 -19 53 -14 92 -18 160
-14 124 6 139 6 230 0 205 -15 343 -44 385 -82 14 -12 40 -30 58 -39 22 -12
32 -24 32 -40 0 -36 18 -43 103 -45 136 -3 169 -37 69 -70 -29 -10 -65 -29
-80 -43 -15 -13 -40 -30 -55 -36 -37 -16 -43 -36 -17 -64 12 -13 28 -35 36
-50 12 -23 12 -29 -1 -42 -8 -8 -15 -19 -15 -24 0 -5 -27 -37 -60 -71 -54 -56
-60 -66 -60 -105 0 -39 -4 -46 -37 -68 -55 -36 -98 -48 -167 -48 -39 0 -70 -6
-83 -15 -12 -9 -26 -14 -30 -13 -4 1 -22 -6 -40 -15 -19 -10 -54 -17 -87 -17
-54 0 -57 -1 -82 -40 -15 -22 -30 -40 -34 -40 -5 0 -20 -20 -34 -44 -15 -25
-31 -48 -37 -52 -6 -3 -39 8 -75 26 -63 31 -64 32 -108 123 -35 72 -45 105
-47 151 -2 48 1 62 15 70 10 6 25 16 34 23 15 11 14 12 -9 13 -34 0 -61 38
-47 65 8 14 6 21 -11 34 -17 13 -21 25 -19 68 2 46 -1 54 -25 73 -18 14 -27
31 -27 49 0 41 -69 91 -125 91 -44 0 -128 29 -156 54 -31 27 -47 93 -29 125 9
18 20 21 70 21 61 0 80 11 60 35 -6 8 -8 19 -4 26 5 9 -7 10 -50 5 -63 -8 -65
-6 -45 69 26 103 36 110 104 75z m-4849 -366 c16 -20 51 -60 78 -88 51 -54
204 -254 226 -296 7 -14 16 -27 19 -30 24 -18 160 -285 205 -403 48 -123 86
-253 86 -293 0 -17 6 -37 14 -43 15 -12 17 -21 46 -181 20 -107 27 -292 11
-274 -5 5 -14 25 -20 45 -10 30 -21 41 -61 58 -27 12 -70 21 -98 21 -27 0 -63
5 -80 11 -24 8 -35 7 -56 -6 -13 -9 -34 -15 -46 -13 -17 2 -25 -5 -37 -37 -9
-22 -16 -56 -17 -75 -1 -28 3 -35 17 -34 14 2 17 -5 15 -32 -3 -47 24 -74 76
-74 29 0 47 6 59 20 19 23 69 27 86 6 8 -10 6 -24 -9 -59 -11 -25 -18 -51 -15
-59 3 -8 26 -19 50 -26 56 -15 66 -33 52 -98 -13 -63 -7 -80 38 -101 37 -17
46 -33 20 -33 -26 0 -115 73 -140 115 -13 22 -42 51 -66 65 -23 14 -58 40 -77
58 -46 43 -64 52 -91 45 -13 -3 -26 -2 -30 4 -3 5 -41 35 -83 67 -93 69 -128
109 -128 144 0 31 -18 67 -74 148 -39 57 -39 57 -55 35 l-17 -22 -32 45 c-18
24 -32 54 -32 67 0 12 -8 31 -17 41 -9 10 -24 40 -33 66 -12 33 -28 56 -57 77
-35 26 -45 42 -68 112 -29 88 -28 74 -9 281 7 66 0 84 -33 88 -13 2 -29 -19
-58 -78 -45 -89 -64 -112 -39 -46 33 90 123 254 202 371 37 53 76 112 87 129
11 18 38 50 61 73 59 58 69 81 49 111 -8 13 -20 24 -25 24 -32 0 12 87 51 103
24 9 26 8 55 -29z m-2401 -44 c3 -5 -3 -10 -15 -10 -12 0 -18 5 -15 10 3 6 10
10 15 10 5 0 12 -4 15 -10z m9201 -77 c-10 -10 -19 5 -10 18 6 11 8 11 12 0 2
-7 1 -15 -2 -18z m-69 -49 c-3 -3 -12 -4 -19 -1 -8 3 -5 6 6 6 11 1 17 -2 13
-5z m-2034 -68 c12 -12 30 -27 39 -32 10 -5 19 -26 21 -49 5 -39 8 -43 92
-112 35 -29 38 -34 27 -57 -7 -16 -24 -28 -44 -34 -28 -7 -34 -14 -38 -42 -4
-29 -11 -37 -44 -49 -36 -14 -41 -13 -85 10 -25 13 -48 28 -50 32 -2 5 -16 24
-32 42 -34 39 -37 71 -9 125 11 21 17 46 14 54 -8 22 15 124 32 141 18 17 39
9 77 -29z m-5543 -36 c0 -23 -4 -24 -31 -10 -27 15 -24 30 6 30 18 0 25 -5 25
-20z m3575 11 c10 -18 -17 -23 -33 -7 -15 15 -15 16 5 16 12 0 24 -4 28 -9z
m3495 -1 c0 -5 -11 -10 -24 -10 -14 0 -28 5 -31 10 -4 6 7 10 24 10 17 0 31
-4 31 -10z m-5160 -307 c50 -31 100 -91 100 -121 0 -51 46 -68 96 -36 23 16
26 16 40 -2 8 -10 24 -39 36 -63 11 -25 29 -54 39 -65 11 -11 19 -23 19 -27 0
-4 18 -29 40 -55 31 -37 40 -56 38 -79 -3 -25 -9 -31 -44 -41 -22 -6 -55 -19
-72 -28 -30 -16 -32 -23 -23 -78 0 -4 10 -10 21 -13 26 -8 26 -35 1 -35 -11 0
-33 -11 -49 -25 -19 -15 -33 -21 -37 -15 -3 5 -23 10 -45 10 -24 0 -40 5 -44
15 -3 10 -19 15 -46 15 -33 0 -47 -6 -68 -29 -15 -16 -46 -34 -68 -40 -44 -12
-114 -77 -114 -106 0 -29 -47 -65 -84 -65 -39 0 -36 -10 -72 205 -16 96 -34
177 -49 220 -38 106 -86 235 -105 278 -27 60 -40 111 -31 120 6 6 28 -2 60
-22 28 -17 60 -31 71 -31 14 0 20 -7 20 -22 1 -17 13 -29 49 -46 45 -21 49
-26 65 -81 9 -33 23 -62 31 -65 17 -6 34 20 28 44 -6 22 23 67 47 75 25 8 31
38 14 71 -11 21 -12 35 -4 57 5 17 10 42 10 56 0 40 18 53 65 46 22 -4 51 -14
65 -22z m3520 -22 c16 -16 35 -31 43 -34 8 -3 18 -23 22 -44 8 -43 30 -73 54
-73 9 0 29 7 46 16 28 14 30 14 48 -8 10 -13 25 -39 34 -58 8 -19 26 -48 39
-63 13 -16 24 -34 24 -42 0 -7 6 -15 13 -18 7 -3 25 -23 41 -46 41 -59 32 -82
-41 -104 -72 -23 -83 -32 -83 -72 0 -24 5 -34 20 -38 30 -8 24 -25 -15 -44
-24 -11 -38 -27 -44 -47 -5 -17 -10 -25 -10 -17 -2 28 -32 50 -60 45 -18 -4
-32 0 -40 10 -24 29 -79 20 -122 -19 -22 -19 -47 -35 -58 -35 -31 0 -97 -56
-114 -96 -15 -38 -48 -74 -66 -74 -26 0 -22 52 10 138 5 13 9 32 9 43 0 10 4
27 9 37 5 9 17 49 26 87 62 259 92 378 123 475 39 123 45 129 92 81z m-4050
-5 c0 -3 -4 -8 -10 -11 -5 -3 -10 -1 -10 4 0 6 5 11 10 11 6 0 10 -2 10 -4z
m-1930 -92 c0 -8 -5 -12 -10 -9 -6 4 -8 11 -5 16 9 14 15 11 15 -7z m365 -41
c76 -6 105 -22 105 -59 0 -19 -8 -25 -42 -35 -24 -6 -65 -9 -92 -6 -40 3 -55
11 -78 36 -15 17 -28 43 -28 57 0 24 2 26 33 20 17 -4 64 -9 102 -13z m3510 7
c3 -5 35 -10 71 -10 76 0 104 -12 104 -43 0 -37 -13 -46 -73 -53 -69 -8 -130
9 -145 40 -17 35 -22 57 -16 67 7 12 51 11 59 -1z m585 2 c0 -4 -6 -16 -13
-27 -7 -11 -19 -36 -27 -55 -7 -19 -19 -48 -26 -65 -8 -16 -27 -67 -43 -113
-16 -46 -32 -78 -36 -72 -4 6 -3 19 1 28 9 21 11 30 12 64 1 15 9 33 17 42 8
8 15 17 15 21 0 3 13 34 29 68 15 34 31 74 35 90 6 24 36 40 36 19z m2988 -9
c62 -4 75 -8 88 -28 30 -45 -10 -75 -102 -75 -65 0 -123 40 -124 86 0 29 11
37 40 29 14 -4 58 -9 98 -12z m-6562 -170 c-14 -26 -15 -27 -16 -5 0 12 6 31
13 42 19 31 22 -2 3 -37z m-24 -58 c-2 -14 -8 -25 -13 -25 -5 0 -6 -6 -4 -12
3 -7 -4 -38 -15 -68 -11 -30 -20 -66 -20 -80 0 -14 -4 -30 -9 -35 -4 -6 -14
-46 -21 -90 -7 -44 -16 -87 -21 -96 -9 -18 -32 -286 -33 -399 -3 -279 73 -687
170 -910 28 -64 79 -164 101 -202 13 -21 23 -42 23 -47 0 -13 83 -150 124
-208 88 -122 152 -203 158 -203 5 0 8 -4 8 -9 0 -5 27 -38 60 -73 33 -35 60
-68 60 -73 0 -16 -60 -85 -75 -85 -7 0 -43 35 -81 78 -38 42 -71 79 -74 82 -3
3 -16 22 -30 42 -14 21 -28 38 -32 38 -5 0 -8 6 -8 14 0 8 -3 16 -8 18 -7 3
-72 100 -146 216 -14 23 -39 80 -54 125 -14 45 -37 98 -50 117 -24 35 -24 41
-7 126 10 46 -8 73 -44 69 -27 -3 -31 1 -54 53 -28 63 -57 158 -64 212 -2 19
-8 44 -13 55 -24 59 -53 272 -54 410 l-1 100 30 5 c24 4 31 11 33 33 3 26 -12
39 -20 16 -2 -7 -13 -9 -26 -5 -20 7 -22 13 -22 96 0 92 4 100 50 100 10 0 23
12 30 29 13 32 4 60 -32 94 -21 20 -16 37 11 37 24 0 43 23 35 44 -3 9 -17 16
-30 16 -20 0 -24 5 -24 33 0 18 7 42 15 53 8 11 14 42 15 75 0 58 18 97 39 85
7 -5 11 -23 9 -45 -2 -27 1 -36 12 -36 11 0 16 13 18 47 2 25 10 52 18 58 7 7
14 19 14 26 0 8 5 24 12 37 24 47 28 57 28 72 0 8 4 15 9 15 4 0 6 -11 3 -25z
m-865 -102 c-3 -10 -5 -4 -5 12 0 17 2 24 5 18 2 -7 2 -21 0 -30z m4313 -39
c0 -35 -29 -134 -40 -134 -4 0 -10 7 -14 15 -10 26 -26 17 -42 -25 -12 -29
-24 -42 -50 -50 -18 -6 -38 -9 -44 -5 -22 13 -5 88 24 107 6 4 25 8 42 8 33 0
44 13 44 55 0 30 21 46 73 54 4 0 7 -11 7 -25z m-3700 -114 c0 -43 -19 -78
-48 -85 -31 -8 -44 10 -36 50 6 34 37 65 65 65 14 0 19 -7 19 -30z m-1165 -30
c3 -5 -3 -10 -14 -10 -11 0 -23 5 -26 10 -3 6 3 10 14 10 11 0 23 -4 26 -10z
m7070 0 c-3 -5 -12 -10 -20 -10 -8 0 -17 5 -20 10 -4 6 5 10 20 10 15 0 24 -4
20 -10z m-2255 -99 c-8 -44 -17 -78 -22 -75 -5 3 -6 10 -2 15 9 15 -26 61 -42
55 -8 -3 -14 1 -14 9 0 8 3 14 8 13 20 -5 49 15 60 44 20 53 25 24 12 -61z
m-4247 51 c15 -17 15 -19 -3 -35 -27 -22 -46 -21 -71 4 -20 20 -20 21 -2 34
25 20 57 18 76 -3z m3320 11 c-7 -2 -21 -2 -30 0 -10 3 -4 5 12 5 17 0 24 -2
18 -5z m258 -9 c18 -16 17 -17 -5 -35 -31 -25 -48 -24 -64 2 -11 18 -11 23 5
35 24 18 43 17 64 -2z m3493 -3 c16 -18 16 -20 -10 -40 l-27 -21 -24 26 c-23
25 -23 27 -6 40 25 19 47 17 67 -5z m-181 2 c-7 -2 -21 -2 -30 0 -10 3 -4 5
12 5 17 0 24 -2 18 -5z m-7043 -13 c0 -5 -2 -10 -4 -10 -3 0 -8 5 -11 10 -3 6
-1 10 4 10 6 0 11 -4 11 -10z m700 -30 c10 -7 -8 -9 -60 -8 l-75 1 55 7 c30 4
57 7 60 8 3 1 12 -3 20 -8z m3593 3 c-7 -2 -21 -2 -30 0 -10 3 -4 5 12 5 17 0
24 -2 18 -5z m2897 -148 c0 -25 -4 -45 -10 -45 -11 0 -14 49 -4 74 10 26 14
18 14 -29z m-2810 -50 c0 -42 -5 -77 -11 -80 -7 -5 -10 -70 -8 -199 2 -172 -1
-205 -25 -336 -43 -225 -57 -290 -65 -290 -10 0 -41 72 -41 95 0 10 -4 34 -9
54 -25 101 -31 141 -42 270 l-12 140 24 20 c13 11 29 21 34 21 6 0 20 9 33 20
29 24 23 49 -19 73 -31 17 -32 19 -26 76 4 32 11 70 17 85 9 25 14 27 58 25
27 -1 54 1 60 5 7 4 12 30 12 57 0 31 4 48 10 44 6 -3 10 -39 10 -80z m2809
-27 c0 -13 -4 -32 -9 -43 -7 -15 -9 -10 -9 23 -1 23 4 42 9 42 6 0 10 -10 9
-22z m-6489 -85 c0 -87 -5 -103 -35 -103 -16 0 -26 8 -33 29 -20 58 33 200 60
158 4 -6 8 -44 8 -84z m-1549 -10 c-9 -16 -10 -15 -11 8 0 14 3 29 8 33 12 12
14 -22 3 -41z m7076 15 c-3 -8 -6 -5 -6 6 -1 11 2 17 5 13 3 -3 4 -12 1 -19z
m-7542 -99 c4 -6 5 -12 2 -15 -7 -7 -37 7 -37 17 0 13 27 11 35 -2z m-1225
-18 c16 -30 12 -36 -10 -16 -21 19 -26 35 -10 35 5 0 14 -9 20 -19z m3578 7
c15 -15 16 -38 2 -38 -5 0 -10 7 -10 15 0 8 -4 15 -10 15 -5 0 -10 5 -10 10 0
14 13 13 28 -2z m-1921 -70 c-2 -13 -4 -3 -4 22 0 25 2 35 4 23 2 -13 2 -33 0
-45z m7074 -25 c-9 -15 -10 -11 -11 19 0 54 14 83 18 36 2 -21 -1 -46 -7 -55z
m-7425 50 c11 -12 13 -18 5 -21 -19 -6 -41 6 -41 23 0 20 14 19 36 -2z m7100
-30 c-6 -6 -56 16 -56 25 0 20 15 21 37 0 12 -12 21 -23 19 -25z m-3506 11 c0
-14 -3 -14 -15 -4 -8 7 -15 14 -15 16 0 2 7 4 15 4 8 0 15 -7 15 -16z m-1666
-26 c3 -13 7 -63 10 -113 8 -164 27 -280 82 -508 15 -59 24 -110 20 -114 -12
-13 -99 -20 -144 -11 -25 4 -61 5 -79 2 -24 -4 -43 0 -68 15 -20 12 -42 21
-50 21 -7 0 -27 28 -43 63 -17 34 -44 79 -61 101 -35 44 -42 106 -16 140 10
13 15 43 15 82 0 52 4 66 28 96 45 57 65 73 112 93 51 22 70 38 70 57 0 23 30
57 68 78 47 25 51 24 56 -2z m2966 -45 c0 -16 -5 -35 -10 -43 -7 -11 -10 -4
-10 28 0 23 5 42 10 42 6 0 10 -12 10 -27z m-4734 3 c17 -13 17 -15 2 -21 -27
-11 -63 -1 -66 18 -4 22 35 24 64 3z m3582 2 c20 -20 14 -28 -20 -28 -39 0
-63 13 -54 29 9 15 59 14 74 -1z m3492 -8 c10 -18 8 -20 -17 -20 -35 0 -58 14
-49 29 12 18 54 13 66 -9z m1147 -52 c-2 -13 -4 -5 -4 17 -1 22 1 32 4 23 2
-10 2 -28 0 -40z m-3500 -75 c-2 -16 -4 -5 -4 22 0 28 2 40 4 28 2 -13 2 -35
0 -50z m-973 30 c-8 -33 -12 -39 -20 -30 -9 9 5 57 16 57 6 0 8 -11 4 -27z
m1423 5 c6 -7 18 -74 27 -148 18 -141 23 -170 57 -310 36 -146 37 -136 -9
-144 -33 -5 -50 -1 -88 19 -26 14 -53 25 -60 25 -8 0 -14 8 -14 18 0 23 -29
79 -68 133 -36 49 -42 100 -16 138 12 16 16 42 15 86 -1 61 1 66 40 112 38 43
83 80 100 82 4 1 11 -5 16 -11z m-5213 -90 c22 -7 43 -15 46 -19 10 -13 69
-39 89 -39 11 0 23 5 26 10 4 6 36 -19 72 -55 36 -36 68 -65 72 -65 4 0 14
-11 21 -25 7 -14 29 -30 49 -36 60 -19 91 -42 127 -91 30 -42 39 -48 71 -49
21 -1 29 -3 18 -6 -11 -2 -30 -6 -42 -9 -38 -7 -26 -32 27 -59 28 -14 58 -33
68 -43 9 -9 49 -30 87 -45 93 -37 155 -93 155 -138 0 -29 -9 -42 -60 -87 -45
-40 -62 -63 -70 -95 -16 -60 -46 -120 -73 -144 -15 -14 -42 -22 -91 -27 -88
-9 -121 -26 -136 -72 -7 -20 -24 -46 -39 -59 -14 -12 -50 -44 -80 -69 -44 -39
-59 -47 -87 -44 -41 3 -52 -7 -56 -52 -3 -35 -3 -35 -59 -40 -35 -3 -65 -12
-77 -23 -12 -11 -31 -17 -48 -15 -25 3 -29 -1 -39 -36 -7 -23 -25 -49 -44 -65
-29 -24 -32 -31 -27 -59 6 -27 2 -37 -32 -74 -54 -60 -57 -73 -27 -124 33 -56
32 -64 -8 -64 -25 0 -42 8 -64 33 -17 17 -38 37 -47 42 -19 11 -60 172 -46
180 4 3 13 25 19 50 6 25 16 45 21 45 20 0 31 43 34 131 3 71 8 95 22 112 33
38 52 80 68 149 9 37 24 94 35 126 11 32 23 88 27 124 8 77 -6 109 -63 148
-33 23 -73 84 -73 113 0 8 -6 20 -14 26 -8 7 -18 27 -21 44 -4 18 -18 56 -32
85 -21 46 -23 58 -13 86 6 18 12 56 13 84 l2 51 48 12 c51 12 53 17 48 112 -2
33 0 37 21 37 12 0 37 9 53 20 34 23 70 25 129 8z m3580 0 c22 -7 56 -23 75
-35 40 -27 76 -30 89 -6 9 15 10 14 16 -3 3 -10 19 -28 36 -39 17 -11 33 -28
36 -38 3 -9 15 -22 27 -28 12 -7 35 -27 50 -45 16 -19 35 -34 43 -34 33 0 95
-43 124 -85 17 -25 35 -46 40 -46 6 -1 15 -3 20 -4 6 -1 22 -4 38 -5 22 -2 20
-4 -13 -9 -30 -5 -41 -11 -43 -27 -2 -16 7 -25 40 -40 23 -10 54 -29 68 -41
15 -12 55 -33 91 -48 75 -30 144 -88 153 -128 6 -26 0 -35 -64 -96 -49 -47
-70 -75 -70 -92 0 -35 -51 -130 -82 -153 -18 -12 -47 -20 -82 -22 -79 -4 -122
-25 -131 -64 -4 -17 -21 -44 -38 -60 -18 -15 -54 -49 -82 -74 -44 -41 -55 -46
-89 -44 -43 3 -54 -10 -55 -64 -1 -27 -3 -28 -52 -28 -36 0 -58 -6 -76 -20
-14 -11 -40 -20 -58 -20 -28 0 -33 -4 -39 -31 -3 -18 -22 -47 -41 -65 -33 -31
-46 -64 -25 -64 21 0 8 -24 -35 -68 -51 -51 -57 -82 -25 -134 28 -46 25 -58
-11 -58 -23 0 -40 9 -63 35 -18 19 -38 35 -44 35 -11 0 -52 121 -52 155 0 37
24 101 48 127 23 25 25 35 25 115 0 81 2 91 30 132 36 53 67 131 67 169 0 15
7 41 16 57 22 40 43 138 44 201 0 54 -6 63 -84 133 -61 54 -102 201 -69 242 6
8 13 28 16 44 2 17 14 71 25 120 11 50 23 115 27 145 7 59 16 77 55 103 29 20
67 22 124 5z m3490 0 c22 -6 54 -21 70 -32 16 -11 48 -21 70 -22 23 -2 45 -3
50 -3 4 -1 46 -39 92 -85 45 -46 93 -87 106 -91 48 -13 85 -39 109 -74 27 -41
43 -53 79 -62 l25 -7 -26 -1 c-27 -1 -44 -24 -33 -42 3 -5 29 -21 57 -36 29
-14 56 -31 62 -38 5 -7 39 -23 75 -36 36 -13 79 -37 96 -54 17 -16 39 -36 48
-43 33 -27 20 -63 -49 -129 -46 -44 -67 -72 -72 -95 -9 -51 -49 -123 -83 -152
-27 -22 -41 -26 -95 -26 -56 0 -66 -3 -94 -29 -17 -16 -31 -38 -31 -49 0 -13
-22 -39 -57 -69 -32 -26 -69 -58 -83 -71 -19 -17 -35 -22 -65 -20 l-40 3 -3
-40 c-4 -46 -21 -60 -72 -56 -25 1 -45 -5 -64 -20 -19 -15 -40 -22 -63 -21
-30 2 -33 0 -33 -24 0 -19 -13 -39 -42 -67 -35 -34 -40 -42 -30 -58 18 -29 15
-37 -33 -81 -53 -48 -57 -76 -20 -130 33 -48 32 -58 -7 -58 -25 0 -45 12 -84
48 -46 43 -52 54 -69 124 -15 61 -16 81 -7 90 7 7 12 22 12 35 0 13 9 32 19
42 34 34 43 61 37 105 -8 52 6 130 28 151 9 9 16 23 16 31 0 8 4 14 10 14 5 0
16 26 25 58 9 31 27 93 40 137 61 198 59 235 -20 297 -30 24 -54 46 -54 50 -1
4 -14 36 -31 71 -32 70 -36 102 -20 157 23 74 62 257 67 307 4 44 10 56 36 76
53 40 82 45 151 25z m-4153 -68 c6 0 7 -5 4 -10 -4 -6 -11 -8 -16 -4 -5 3 -16
1 -23 -5 -11 -9 -22 -4 -51 23 l-36 35 28 3 c18 2 38 -5 56 -19 16 -13 33 -23
38 -23z m-3616 20 c10 -11 26 -20 37 -20 10 0 18 -4 18 -9 0 -5 -9 -7 -20 -4
-11 3 -27 0 -36 -8 -13 -11 -20 -7 -48 23 l-32 35 32 1 c20 1 38 -6 49 -18z
m122 -56 c-3 -3 -12 -4 -19 -1 -8 3 -5 6 6 6 11 1 17 -2 13 -5z m188 -54 c15
-7 11 -8 -18 -6 -21 2 -41 6 -44 10 -9 9 39 6 62 -4z m3582 -6 c-3 -3 -12 -4
-19 -1 -8 3 -5 6 6 6 11 1 17 -2 13 -5z m103 -33 c0 -6 -4 -13 -10 -16 -5 -3
-10 1 -10 9 0 9 5 16 10 16 6 0 10 -4 10 -9z m-13 -93 c-3 -7 -5 -2 -5 12 0
14 2 19 5 13 2 -7 2 -19 0 -25z m-2137 -138 c9 -17 7 -22 -12 -29 -14 -5 -31
-5 -42 2 -19 9 -19 10 3 28 29 24 38 24 51 -1z m3587 -13 c-5 -15 -69 -16 -74
-1 -6 17 39 33 60 22 10 -5 16 -15 14 -21z m3490 13 c11 -16 10 -21 -7 -30
-14 -8 -26 -8 -40 0 -25 13 -25 19 -2 36 24 19 35 17 49 -6z m-7277 -1025 c0
-8 -7 -15 -16 -15 -14 0 -14 3 -4 15 7 8 14 15 16 15 2 0 4 -7 4 -15z m7074 0
c3 -8 4 -15 2 -15 -3 0 -11 -3 -19 -6 -12 -4 -14 0 -10 15 6 25 18 27 27 6z
m-3504 -8 c0 -8 -6 -14 -14 -14 -8 0 -12 6 -9 14 3 7 9 13 14 13 5 0 9 -6 9
-13z m-2726 -32 c-22 -16 -44 -19 -44 -6 0 6 10 17 22 25 29 21 51 3 22 -19z
m7077 3 c-23 -18 -41 -16 -41 3 0 12 42 29 54 21 5 -3 -1 -13 -13 -24z m-6024
-66 c43 -38 110 -90 148 -117 39 -26 77 -54 85 -60 21 -18 76 -49 198 -112 57
-30 120 -62 140 -73 20 -11 40 -20 44 -20 5 0 27 -9 51 -20 114 -53 392 -128
557 -149 285 -37 382 -39 600 -11 162 21 223 31 328 57 40 9 67 12 73 6 6 -6
5 -29 -2 -61 -10 -48 -13 -52 -47 -61 -270 -72 -368 -85 -657 -85 -138 1 -279
6 -315 12 -36 6 -94 16 -129 22 -35 6 -102 22 -150 37 -47 14 -113 33 -146 42
-33 10 -67 20 -75 23 -8 3 -37 14 -65 23 -27 10 -75 30 -105 45 -30 15 -87 44
-127 63 -82 41 -116 60 -123 67 -3 3 -40 27 -83 54 -165 102 -380 285 -370
315 10 27 56 71 75 71 10 0 53 -31 95 -68z m-201 -87 c3 -8 14 -17 25 -20 10
-4 19 -13 19 -21 0 -8 4 -14 10 -14 5 0 28 -18 52 -40 24 -22 46 -40 49 -40 3
0 21 -13 39 -30 18 -16 72 -55 119 -86 47 -31 98 -65 113 -75 38 -26 89 -55
182 -100 45 -22 88 -44 97 -49 58 -31 286 -108 429 -145 96 -25 99 -27 70 -35
-30 -9 -2458 -13 -2512 -4 -42 7 -42 24 0 24 15 0 65 12 112 26 47 13 112 32
145 41 142 37 437 173 587 270 24 15 50 32 59 38 70 44 144 99 257 190 7 5 29
26 50 46 39 39 88 51 98 24z m3774 -263 c47 -31 96 -63 110 -72 14 -9 79 -42
145 -74 66 -32 127 -61 137 -66 9 -5 54 -23 100 -40 45 -17 92 -35 103 -40 30
-13 288 -80 307 -80 31 0 28 -18 -5 -23 -17 -3 -277 -6 -576 -6 -546 -1 -587
1 -563 33 5 6 19 52 31 101 79 326 83 337 108 328 10 -4 56 -31 103 -61z
m-1390 -357 c30 -37 -45 -58 -139 -39 -36 7 -42 24 -8 24 12 0 42 7 67 14 58
19 65 19 80 1z"/>
<path d="M5257 13533 c-4 -3 0 -14 9 -24 9 -10 14 -25 11 -33 -4 -9 0 -21 6
-28 7 -7 16 -21 20 -30 9 -26 57 -24 57 1 0 11 -5 23 -11 27 -6 3 -20 26 -31
50 -18 41 -43 56 -61 37z"/>
<path d="M5138 13486 c-24 -18 -23 -25 6 -36 36 -13 62 -56 46 -75 -19 -22
-47 -18 -94 14 -41 27 -44 27 -72 13 -38 -19 -66 -49 -54 -57 6 -3 10 -26 10
-51 0 -51 21 -100 57 -129 31 -25 23 -51 -20 -59 -27 -5 -29 -8 -16 -21 7 -8
33 -17 57 -21 38 -6 42 -5 42 14 0 29 25 51 51 45 12 -4 25 0 30 8 14 22 11
29 -12 29 -31 0 -111 83 -107 111 7 48 110 52 122 4 8 -30 17 -31 41 -5 15 17
16 24 5 50 -11 27 -10 33 6 51 15 17 16 22 4 29 -12 7 -12 13 -1 34 13 23 12
27 -10 45 -28 23 -66 26 -91 7z"/>
<path d="M6143 13473 c9 -2 23 -2 30 0 6 3 -1 5 -18 5 -16 0 -22 -2 -12 -5z"/>
<path d="M5412 13433 c4 -22 43 -25 43 -3 0 8 -11 16 -23 18 -19 3 -23 0 -20
-15z"/>
<path d="M5287 13328 c7 -50 10 -55 24 -41 16 16 7 77 -13 81 -14 3 -15 -3
-11 -40z"/>
<path d="M5440 13320 c0 -5 7 -10 16 -10 8 0 12 5 9 10 -3 6 -10 10 -16 10 -5
0 -9 -4 -9 -10z"/>
<path d="M5372 13261 c-8 -4 -19 -19 -26 -32 -6 -13 -21 -25 -33 -27 -36 -5
-48 -28 -29 -57 9 -13 16 -30 16 -37 0 -23 52 -86 76 -92 14 -4 24 -14 24 -24
0 -9 4 -24 10 -32 7 -12 12 -12 29 4 34 30 21 75 -25 90 -62 19 -54 166 10
166 23 0 20 16 -6 34 -26 18 -28 19 -46 7z"/>
<path d="M5196 13051 c-4 -5 -2 -12 3 -15 5 -4 12 -2 15 3 4 5 2 12 -3 15 -5
4 -12 2 -15 -3z"/>
<path d="M5420 12116 c0 -9 5 -16 10 -16 6 0 10 4 10 9 0 6 -4 13 -10 16 -5 3
-10 -1 -10 -9z"/>
<path d="M5920 12101 c-12 -23 11 -42 41 -34 23 6 25 39 3 47 -25 10 -33 7
-44 -13z"/>
<path d="M4545 11927 c-4 -10 -5 -21 -1 -24 10 -10 18 4 13 24 -4 17 -4 17
-12 0z"/>
<path d="M8845 13540 c-4 -6 -2 -17 5 -25 6 -7 12 -24 14 -37 5 -43 28 -78 53
-78 32 0 29 23 -10 89 -34 56 -50 70 -62 51z"/>
<path d="M8717 13482 c-16 -17 -15 -20 20 -38 41 -21 52 -46 33 -69 -19 -23
-57 -18 -92 14 l-32 29 -42 -21 -42 -20 -1 -60 c0 -69 15 -112 53 -146 24 -22
37 -63 19 -59 -5 1 -21 -2 -36 -7 -35 -9 -25 -20 35 -39 l46 -14 7 27 c10 38
22 49 49 44 16 -3 25 1 30 13 7 18 -11 37 -26 28 -11 -7 -98 85 -98 103 0 24
31 42 73 43 30 0 40 -5 49 -25 13 -29 30 -32 48 -10 11 13 11 20 0 40 -8 14
-9 31 -5 42 13 28 14 96 2 121 -13 28 -66 30 -90 4z"/>
<path d="M9710 13470 c20 -13 50 -13 50 0 0 6 -15 10 -32 10 -25 0 -29 -3 -18
-10z"/>
<path d="M8992 13433 c4 -22 43 -25 43 -3 0 8 -11 16 -23 18 -19 3 -23 0 -20
-15z"/>
<path d="M8866 13343 c8 -54 12 -65 24 -58 14 9 13 68 -2 83 -21 21 -27 13
-22 -25z"/>
<path d="M9020 13320 c0 -5 5 -10 11 -10 5 0 7 5 4 10 -3 6 -8 10 -11 10 -2 0
-4 -4 -4 -10z"/>
<path d="M8939 13241 c-7 -21 -21 -33 -45 -41 -26 -9 -34 -17 -34 -35 0 -13 5
-27 10 -30 6 -3 10 -14 10 -23 0 -26 50 -90 76 -96 17 -5 24 -13 24 -31 0 -28
12 -38 34 -29 38 14 30 76 -12 98 -15 8 -35 30 -46 49 -16 31 -17 39 -5 65 7
16 25 38 41 48 30 21 24 36 -20 49 -19 5 -24 2 -33 -24z"/>
<path d="M8770 13040 c0 -5 7 -10 15 -10 8 0 15 5 15 10 0 6 -7 10 -15 10 -8
0 -15 -4 -15 -10z"/>
<path d="M15383 12281 c-13 -11 -23 -22 -23 -26 0 -13 -30 -36 -64 -50 -49
-21 -61 -46 -40 -87 17 -32 17 -32 -15 -58 -17 -15 -31 -33 -31 -42 0 -18 -24
-41 -64 -62 -27 -14 -24 -14 59 -11 85 3 87 3 126 41 50 49 55 67 30 103 -12
16 -21 42 -21 58 0 28 4 33 94 106 17 14 26 29 22 35 -11 18 -48 14 -73 -7z"/>
<path d="M15751 12254 c0 -11 3 -14 6 -6 3 7 2 16 -1 19 -3 4 -6 -2 -5 -13z"/>
<path d="M15482 12068 c3 -7 13 -15 22 -16 12 -3 17 1 14 10 -3 7 -13 15 -22
16 -12 3 -17 -1 -14 -10z"/>
<path d="M15050 11950 c0 -5 14 -10 32 -10 36 0 35 4 -4 14 -17 4 -28 2 -28
-4z"/>
<path d="M15040 11615 c0 -21 29 -65 58 -88 51 -42 55 -48 38 -65 -13 -14 -19
-12 -53 13 -21 15 -62 53 -91 84 -51 54 -53 55 -85 43 -19 -7 -45 -12 -58 -12
-30 0 -49 -17 -50 -44 -1 -18 -2 -19 -6 -3 -9 33 -63 12 -114 -45 -39 -42 -54
-52 -90 -57 -23 -3 -44 -11 -46 -18 -6 -18 60 -27 114 -14 99 22 258 10 291
-22 13 -14 14 -22 5 -46 -12 -34 2 -51 60 -70 19 -7 41 -19 49 -28 7 -9 32
-25 56 -35 l43 -19 36 27 35 27 85 -37 c67 -30 96 -37 141 -36 31 1 69 -2 83
-5 22 -6 31 -1 52 27 59 77 55 120 -12 117 -51 -2 -141 18 -162 37 -10 9 -21
33 -24 55 -8 43 -25 58 -61 51 -23 -4 -28 -14 -36 -67 -2 -12 -11 -20 -22 -20
-14 0 -27 20 -51 73 -25 57 -46 86 -96 132 -65 60 -89 73 -89 45z m-110 -120
c0 -14 -4 -25 -10 -25 -5 0 -10 11 -10 25 0 14 5 25 10 25 6 0 10 -11 10 -25z"/>
<path d="M15540 11602 c-23 -7 -90 -84 -97 -110 -6 -26 14 -55 31 -45 6 4 42
9 80 10 52 2 80 -2 110 -16 59 -27 112 -33 131 -15 8 9 15 19 15 22 0 8 -38
49 -69 75 -18 14 -21 24 -16 47 6 28 4 30 -21 30 -15 0 -38 -10 -51 -22 l-23
-22 -28 20 c-39 29 -45 32 -62 26z"/>
<path d="M15553 11059 c-12 -12 -7 -28 43 -135 13 -28 24 -56 24 -61 0 -6 7
-13 15 -17 10 -3 15 -19 15 -43 0 -29 8 -46 31 -70 45 -49 63 -44 56 14 -4 39
-12 54 -42 79 -29 26 -35 37 -30 57 9 33 -70 187 -95 187 -3 0 -11 -5 -17 -11z"/>
<path d="M13196 13472 c-3 -5 8 -6 25 -4 16 2 29 6 29 8 0 8 -49 4 -54 -4z"/>
<path d="M8126 11933 c-9 -9 -7 -33 3 -33 12 0 22 28 12 34 -5 3 -11 3 -15 -1z"/>
<path d="M13036 12707 c3 -10 9 -15 12 -12 3 3 0 11 -7 18 -10 9 -11 8 -5 -6z"/>
<path d="M9000 12116 c0 -9 7 -16 16 -16 9 0 14 5 12 12 -6 18 -28 21 -28 4z"/>
<path d="M9505 12108 c-14 -21 -14 -24 2 -36 24 -18 47 -11 51 15 2 14 -4 26
-17 32 -16 9 -23 7 -36 -11z"/>
<path d="M12993 12104 c-3 -8 1 -23 10 -31 21 -21 47 -9 47 22 0 20 -5 25 -25
25 -14 0 -28 -7 -32 -16z"/>
<path d="M15085 17508 c-22 -29 -61 -84 -87 -123 -27 -38 -88 -126 -137 -195
-140 -196 -191 -269 -191 -275 0 -2 15 -15 34 -27 19 -13 96 -67 171 -121
l138 -99 26 30 c32 36 51 68 51 84 -1 12 -14 24 -142 117 -32 23 -58 47 -58
53 0 23 94 148 112 148 17 0 76 -36 164 -100 l42 -29 36 54 c20 30 36 59 36
64 0 9 -19 25 -135 109 -25 18 -45 39 -45 47 0 18 47 87 67 99 11 6 29 -2 62
-24 25 -18 72 -51 105 -74 l58 -41 34 40 c37 42 54 87 36 93 -6 2 -51 33 -99
68 -47 36 -99 72 -114 79 -15 8 -29 18 -31 22 -5 13 -66 53 -80 53 -8 0 -31
-24 -53 -52z"/>
<path d="M5248 17507 c-49 -43 -50 -50 -16 -92 44 -55 178 -248 183 -264 10
-34 -18 -26 -113 30 -219 130 -275 160 -289 154 -26 -9 -143 -98 -143 -108 0
-5 10 -22 23 -37 12 -15 29 -37 37 -50 8 -12 31 -44 50 -70 19 -27 58 -81 85
-120 28 -39 74 -103 104 -143 30 -39 66 -90 80 -112 14 -22 39 -57 54 -77 l28
-36 54 35 c30 20 55 41 55 47 0 6 -25 45 -55 86 -115 157 -125 171 -125 181 0
5 -4 9 -8 9 -4 0 -27 29 -50 64 -69 105 -58 110 69 31 49 -30 91 -55 94 -55 3
0 29 -15 58 -33 29 -18 59 -36 67 -40 8 -4 31 -17 50 -28 19 -12 54 -32 76
-45 l41 -23 54 40 c30 22 55 44 57 49 2 5 -15 34 -37 64 -23 30 -41 60 -41 66
0 5 -4 10 -8 10 -4 0 -26 28 -49 63 -23 34 -51 72 -62 84 -12 12 -21 25 -21
28 0 3 -21 34 -48 68 -26 34 -60 81 -75 105 -15 23 -36 53 -47 65 -10 12 -29
37 -42 56 -13 19 -27 36 -33 38 -5 1 -31 -16 -57 -40z"/>
<path d="M15525 17139 c-55 -27 -88 -62 -124 -129 -51 -95 -42 -149 50 -288
55 -84 61 -117 26 -158 -21 -24 -28 -26 -70 -20 -39 6 -53 15 -90 56 -41 46
-87 143 -87 185 0 13 -7 9 -29 -15 -43 -49 -49 -56 -70 -91 l-20 -33 30 -56
c49 -88 145 -165 239 -190 37 -10 54 -9 110 6 55 15 73 26 117 70 81 83 102
178 59 265 -9 18 -16 38 -16 46 0 7 -4 13 -9 13 -18 0 -81 108 -81 139 0 71
77 93 146 42 49 -35 69 -65 91 -135 11 -37 21 -53 29 -48 11 7 81 92 98 120
20 32 -99 168 -186 213 -71 36 -151 39 -213 8z"/>
<path d="M4635 17011 c-32 -8 -94 -45 -135 -80 -14 -12 -52 -46 -84 -74 -32
-29 -65 -56 -72 -60 -23 -13 -16 -36 24 -85 20 -26 39 -49 42 -52 3 -3 63 -72
133 -155 71 -82 156 -181 189 -218 34 -38 70 -79 80 -93 11 -13 24 -24 30 -24
12 0 88 66 101 87 8 13 -30 64 -131 172 -40 45 -41 84 -1 89 15 2 94 -20 175
-47 l149 -51 25 20 c14 12 44 35 68 52 23 18 42 37 42 44 0 12 -69 37 -245 89
-49 15 -96 28 -102 30 -9 3 -13 28 -13 77 0 90 -20 136 -85 201 -70 70 -126
93 -190 78z m91 -205 c54 -54 53 -108 -2 -162 -33 -34 -50 -40 -69 -26 -25 18
-115 131 -115 145 0 18 66 70 100 78 23 5 60 -9 86 -35z"/>
<path d="M15989 16730 c-54 -28 -125 -113 -144 -170 -16 -47 -16 -54 1 -108
10 -31 35 -86 56 -122 44 -75 49 -119 17 -151 -17 -17 -30 -20 -66 -16 -77 8
-147 99 -160 206 -3 28 -11 51 -17 51 -18 0 -116 -113 -116 -134 0 -60 108
-197 194 -247 42 -23 63 -29 114 -29 79 0 121 19 184 81 95 95 101 180 24 331
-47 91 -53 116 -36 148 15 28 75 36 116 17 52 -25 98 -108 107 -191 1 -11 7
-21 13 -23 14 -5 114 101 114 121 0 41 -78 157 -134 199 -77 59 -195 75 -267
37z"/>
<path d="M4043 16512 c-79 -76 -143 -142 -143 -148 0 -11 40 -54 280 -304 97
-102 195 -204 217 -227 22 -24 44 -43 49 -43 5 0 76 65 159 144 l150 144 -40
45 c-22 25 -46 48 -54 51 -8 4 -32 -11 -60 -39 -98 -95 -133 -125 -145 -125
-14 0 -136 123 -136 137 0 5 38 47 85 92 95 93 93 84 23 154 l-38 37 -41 -37
c-23 -21 -62 -57 -86 -80 -24 -24 -49 -43 -56 -43 -7 0 -29 18 -51 40 -50 52
-45 67 48 150 106 95 106 93 52 146 -25 24 -51 44 -58 44 -7 0 -77 -62 -155
-138z"/>
<path d="M3729 16188 c-29 -35 -56 -65 -59 -68 -14 -12 -198 -228 -213 -249
-16 -24 -16 -25 16 -54 70 -63 73 -64 113 -21 20 22 43 49 51 62 31 45 31 46
304 -193 185 -162 219 -190 228 -190 12 0 91 94 91 109 0 8 -19 29 -42 47 -36
29 -103 87 -144 125 -6 5 -73 64 -148 129 -132 115 -156 148 -121 161 8 4 15
10 15 16 0 5 16 26 35 46 19 20 35 42 35 48 0 12 -87 94 -100 94 -4 0 -31 -28
-61 -62z"/>
<path d="M16680 16139 c-25 -22 -56 -50 -70 -63 -14 -12 -72 -62 -130 -111
-58 -48 -107 -91 -110 -95 -3 -3 -45 -40 -95 -82 -49 -42 -101 -87 -114 -101
l-23 -26 20 -28 c11 -15 34 -41 50 -56 l30 -29 86 76 c47 42 93 76 102 76 9 0
41 -23 70 -50 65 -62 106 -80 179 -80 71 0 150 37 212 100 77 77 100 156 69
242 -12 32 -62 105 -91 133 -6 6 -35 38 -64 73 -29 34 -58 62 -64 62 -7 0 -32
-19 -57 -41z m100 -222 c37 -59 19 -128 -43 -166 -50 -31 -99 -28 -142 10 -19
17 -35 38 -35 46 0 15 43 60 121 125 50 41 67 39 99 -15z"/>
<path d="M3321 15703 c-47 -56 -47 -55 56 -129 35 -25 63 -49 63 -55 0 -5 6
-9 14 -9 8 0 16 -3 18 -7 2 -5 29 -28 61 -52 57 -43 72 -71 40 -71 -10 0 -72
14 -138 31 -245 62 -286 72 -288 68 -2 -2 -26 -34 -55 -70 -29 -37 -52 -71
-52 -76 0 -10 28 -37 66 -63 11 -8 41 -31 65 -52 43 -36 75 -61 254 -197 50
-38 122 -94 160 -125 39 -31 75 -56 80 -55 13 0 75 85 75 103 0 13 -103 97
-282 229 -91 67 -110 88 -90 101 5 3 71 -11 148 -31 76 -19 155 -39 174 -43
19 -5 51 -13 70 -18 19 -5 59 -15 89 -22 l54 -13 44 49 c24 27 42 57 41 66 -2
10 -49 53 -105 95 -55 43 -191 149 -302 236 -110 86 -205 157 -210 157 -5 0
-28 -21 -50 -47z"/>
<path d="M17019 15619 c-103 -80 -123 -96 -229 -180 -30 -25 -103 -82 -162
-128 -60 -46 -108 -90 -108 -99 0 -8 44 -69 98 -136 54 -67 108 -136 120 -153
13 -18 30 -33 38 -33 19 0 104 68 104 83 0 6 -18 32 -40 58 -22 26 -40 50 -40
53 0 2 -13 20 -30 38 -27 30 -42 88 -22 88 7 0 59 42 93 75 24 23 55 18 81
-15 82 -104 113 -140 124 -140 14 0 104 68 104 79 0 4 -31 49 -69 100 -38 51
-67 98 -65 104 6 13 83 77 93 77 10 0 24 -13 56 -50 36 -44 95 -116 111 -138
11 -15 14 -14 35 1 13 10 39 27 56 40 18 12 33 26 33 30 0 8 -73 110 -97 135
-7 7 -34 41 -60 75 -26 34 -55 71 -65 81 -10 11 -18 23 -18 28 0 24 -49 -1
-141 -73z"/>
<path d="M17490 15195 c-7 -8 -16 -15 -21 -15 -4 0 -63 -36 -131 -80 -68 -43
-154 -98 -193 -122 -38 -23 -116 -72 -172 -110 -57 -37 -107 -68 -112 -68 -5
0 -11 -6 -14 -14 -6 -15 58 -116 73 -116 9 0 55 29 148 91 23 16 47 29 51 29
5 0 11 4 13 8 4 10 206 132 218 132 19 0 10 -28 -20 -66 -58 -73 -270 -403
-270 -420 0 -9 8 -28 18 -42 9 -15 22 -36 28 -47 22 -40 24 -39 301 140 25 17
58 37 72 45 14 9 53 34 86 55 33 22 72 46 86 55 165 98 177 108 146 127 -7 4
-23 25 -36 46 -12 20 -28 37 -34 37 -7 0 -32 -14 -57 -30 -25 -16 -51 -30 -57
-30 -7 0 -13 -4 -13 -10 0 -5 -4 -10 -8 -10 -5 0 -49 -27 -98 -60 -141 -94
-148 -81 -39 81 41 61 75 113 75 115 0 2 18 30 40 61 22 32 40 64 40 72 0 18
-89 161 -99 161 -5 0 -14 -7 -21 -15z"/>
<path d="M2846 15042 c-47 -71 -88 -136 -92 -145 -4 -11 8 -24 43 -46 58 -37
66 -38 83 -7 23 44 36 41 132 -21 32 -21 103 -67 159 -102 56 -35 109 -70 118
-77 9 -7 27 -22 40 -32 24 -19 24 -20 8 -45 -23 -35 -21 -58 3 -64 11 -3 20
-9 20 -14 0 -5 7 -9 15 -9 8 0 15 -4 15 -10 0 -5 11 -10 25 -10 14 0 25 4 25
9 0 8 42 75 131 209 16 23 29 46 29 51 0 11 -86 71 -102 71 -8 0 -21 -11 -28
-24 -7 -14 -19 -27 -27 -31 -8 -3 -51 19 -96 48 -45 30 -107 69 -137 89 -224
143 -221 140 -196 167 31 34 20 64 -33 94 l-50 27 -85 -128z"/>
<path d="M17828 14589 c-32 -16 -58 -34 -58 -39 0 -6 14 -38 31 -71 16 -33 29
-70 27 -81 -2 -16 -43 -41 -164 -102 -88 -44 -171 -86 -185 -92 -77 -35 -204
-108 -207 -119 -4 -16 47 -115 62 -121 6 -2 137 58 290 135 154 77 284 137
290 135 7 -3 19 -20 29 -39 9 -19 25 -51 35 -71 9 -20 20 -37 23 -39 8 -6 129
53 129 62 0 13 -233 473 -239 473 -3 -1 -32 -14 -63 -31z"/>
<path d="M2497 14467 c-17 -27 -49 -99 -45 -103 9 -8 248 -124 257 -124 6 0
11 -4 11 -9 0 -5 12 -14 28 -19 35 -13 69 -39 61 -47 -4 -3 -102 -1 -219 5
-116 6 -219 8 -228 5 -14 -4 -92 -146 -92 -167 0 -8 10 -13 170 -92 52 -25
109 -53 125 -62 105 -57 404 -204 413 -204 6 0 14 10 18 23 3 12 15 35 26 50
11 15 17 34 14 42 -3 8 -56 39 -118 70 -62 30 -124 62 -138 70 -14 8 -60 30
-102 50 -49 23 -78 42 -78 52 0 14 16 15 133 10 72 -4 197 -10 277 -13 l146
-7 27 42 c15 23 30 54 33 69 6 27 2 30 -341 202 -191 96 -351 176 -355 178 -4
1 -14 -8 -23 -21z"/>
<path d="M18145 14031 c-11 -3 -34 -14 -51 -23 -17 -10 -65 -30 -105 -47 -41
-16 -121 -52 -179 -79 -58 -27 -139 -64 -180 -82 -111 -47 -161 -73 -167 -88
-3 -7 7 -41 22 -75 117 -263 138 -307 153 -307 13 0 24 5 84 40 l37 21 -15 37
c-8 20 -19 44 -24 53 -5 10 -20 44 -35 78 -20 48 -23 66 -15 81 6 11 15 20 20
20 10 0 85 31 121 50 25 13 36 0 83 -105 25 -55 50 -101 55 -103 18 -6 121 48
121 63 0 8 -18 54 -40 101 -22 48 -40 95 -40 105 0 21 85 68 112 62 17 -4 48
-62 84 -153 9 -25 24 -53 32 -62 13 -16 17 -16 66 3 28 11 55 25 61 30 11 11
-4 56 -60 174 -52 112 -71 153 -84 188 -11 27 -20 30 -56 18z"/>
<path d="M2260 13741 c-121 -38 -186 -106 -220 -229 -13 -50 0 -136 29 -182
115 -187 444 -310 616 -229 70 33 126 93 153 162 46 121 15 227 -93 324 -122
111 -371 189 -485 154z m213 -180 c171 -59 268 -172 223 -260 -26 -49 -66 -64
-160 -58 -139 8 -298 92 -333 175 -18 43 -10 113 15 135 47 41 150 44 255 8z"/>
<path d="M18145 13434 c-56 -15 -173 -60 -214 -82 -76 -43 -165 -138 -186
-201 -23 -71 -16 -150 21 -225 27 -55 107 -146 130 -146 21 0 148 56 151 67 2
6 -16 21 -41 34 -25 12 -60 37 -78 56 -31 32 -33 39 -32 99 1 56 5 69 30 100
34 42 140 109 199 126 56 16 174 14 209 -3 40 -19 66 -58 73 -107 6 -42 -11
-126 -30 -150 -7 -8 -7 -16 0 -23 6 -6 37 1 91 21 l81 31 7 45 c21 143 -51
282 -175 337 -45 20 -191 33 -236 21z"/>
<path d="M1912 13131 c-5 -9 -15 -36 -22 -61 -7 -25 -26 -84 -42 -131 -15 -48
-28 -94 -28 -102 0 -9 21 -21 55 -31 56 -18 75 -16 75 10 0 8 9 23 19 33 19
19 20 19 98 -6 43 -14 87 -29 98 -33 68 -24 96 -34 150 -50 124 -38 155 -51
155 -69 0 -9 -5 -22 -11 -28 -6 -6 -9 -19 -7 -29 4 -24 107 -58 124 -41 11 11
104 279 104 299 0 10 -47 31 -93 42 -25 6 -29 3 -42 -28 -8 -19 -19 -37 -24
-40 -5 -3 -76 16 -158 43 -81 27 -188 62 -238 78 l-90 29 2 47 c3 43 1 48 -25
58 -61 25 -92 28 -100 10z"/>
<path d="M18291 12815 c-230 -59 -354 -163 -368 -310 -9 -103 17 -177 87 -243
70 -66 101 -76 240 -76 114 0 132 2 200 28 199 77 308 200 298 337 -8 114 -78
213 -182 257 -44 20 -211 24 -275 7z m229 -158 c40 -14 80 -68 80 -106 -2 -98
-142 -184 -335 -207 -105 -13 -195 39 -195 111 0 39 23 92 49 113 43 33 154
78 236 95 41 9 131 5 165 -6z"/>
<path d="M1787 12668 c-37 -45 -63 -101 -83 -177 -15 -60 -15 -69 0 -125 10
-32 26 -72 37 -88 58 -81 192 -125 285 -94 29 9 64 31 81 49 42 46 93 113 93
124 0 14 52 60 75 67 30 9 81 -26 88 -61 16 -78 -40 -180 -130 -240 -32 -22
-28 -40 10 -48 17 -4 54 -14 80 -22 48 -16 48 -16 76 11 60 57 113 187 115
276 2 156 -164 287 -321 252 -61 -14 -109 -58 -186 -172 -41 -60 -47 -65 -84
-68 -114 -9 -108 158 9 247 26 20 47 41 47 47 1 8 -136 54 -161 54 -2 0 -16
-15 -31 -32z"/>
<path d="M18583 12126 c-123 -30 -193 -130 -193 -276 0 -33 -4 -60 -9 -60 -5
0 -11 -10 -13 -22 -4 -26 -52 -44 -91 -34 -78 19 -91 189 -22 290 14 21 20 38
14 42 -21 13 -201 -28 -186 -42 3 -3 -1 -26 -7 -51 -28 -109 17 -296 82 -339
69 -47 92 -54 167 -54 173 0 239 70 265 280 11 94 28 120 80 120 58 0 90 -52
90 -147 0 -55 -5 -76 -25 -108 -13 -22 -25 -44 -25 -49 0 -9 85 -1 142 14 36
10 36 11 48 81 28 166 -57 335 -179 354 -20 4 -47 8 -61 10 -14 2 -48 -2 -77
-9z"/>
<path d="M1636 12059 c-8 -13 -27 -51 -43 -84 -23 -50 -27 -74 -28 -145 0 -77
3 -89 29 -130 60 -95 114 -123 236 -123 108 -1 158 39 232 186 34 67 57 87 99
87 75 0 104 -96 56 -186 -25 -47 -92 -124 -107 -124 -5 0 -10 -6 -10 -14 0
-12 14 -16 145 -41 27 -5 36 2 71 55 49 74 68 136 67 220 -1 91 -22 141 -84
193 -72 62 -195 86 -272 53 -46 -19 -106 -89 -152 -178 -30 -59 -45 -77 -65
-81 -82 -16 -120 32 -100 126 6 31 18 63 26 71 8 8 14 18 14 21 0 4 19 24 43
45 l42 38 -25 10 c-15 6 -56 13 -92 17 -62 7 -67 6 -82 -16z"/>
<path d="M18862 11599 c-23 -4 -47 -11 -53 -14 -9 -6 -6 -80 6 -140 9 -42 5
-43 -270 -75 -245 -29 -332 -40 -354 -46 -22 -7 -23 -9 -16 -73 4 -36 11 -70
15 -75 9 -9 94 0 463 46 140 18 170 19 177 8 5 -8 11 -41 15 -74 11 -103 8
-100 82 -93 35 4 68 9 74 13 5 3 8 24 5 47 -3 23 -12 98 -21 167 -26 216 -37
295 -41 308 -4 13 -19 14 -82 1z"/>
<path d="M1506 11458 c-24 -164 -34 -293 -24 -303 3 -3 32 -7 64 -8 l59 -2 5
35 c6 43 19 46 125 31 44 -6 143 -18 220 -26 197 -22 183 -17 187 -73 l3 -47
55 -6 c62 -7 70 -3 75 37 30 206 35 278 23 289 -27 25 -132 26 -129 1 8 -60
-6 -70 -85 -57 -38 6 -150 20 -249 32 -99 12 -183 26 -186 31 -4 6 -5 27 -2
48 l5 37 -53 6 c-86 11 -88 10 -93 -25z"/>
<path d="M1452 10962 c-9 -6 -12 -32 -10 -92 l3 -84 35 -17 c19 -9 62 -27 95
-39 33 -12 69 -26 80 -31 11 -4 47 -19 80 -32 33 -13 61 -30 63 -38 3 -14 -6
-17 -263 -101 l-100 -33 0 -90 0 -90 140 -7 c77 -3 256 -8 398 -10 l259 -3 1
70 1 70 -214 7 c-118 4 -225 10 -238 13 -24 6 -24 7 -6 18 22 14 55 26 169 58
44 12 86 29 93 38 7 9 12 35 10 60 l-3 44 -70 24 c-38 14 -74 29 -79 34 -6 5
-18 9 -28 9 -10 0 -26 4 -36 9 -9 5 -25 12 -34 15 -10 3 -18 11 -18 19 0 11
44 13 233 13 l232 -1 3 66 c2 45 -1 69 -10 77 -8 6 -131 12 -338 16 -179 4
-350 9 -380 11 -30 3 -61 1 -68 -3z"/>
<path d="M18210 10918 c0 -29 3 -63 6 -74 7 -28 44 -44 98 -44 66 0 76 -17 76
-132 0 -68 -3 -95 -12 -96 -7 0 -40 -9 -73 -20 l-60 -20 2 -78 c2 -42 4 -79 6
-80 3 -3 171 54 372 126 44 16 136 49 205 73 142 50 157 55 187 67 21 9 22 14
17 82 -5 83 -20 103 -82 113 -76 12 -320 56 -392 71 -41 8 -100 20 -130 26
-30 5 -73 14 -95 18 -22 5 -59 11 -82 15 l-43 5 0 -52z m490 -183 c31 -6 55
-17 55 -24 0 -12 -161 -71 -195 -71 -10 0 -21 7 -24 16 -8 21 -8 89 1 97 8 8
84 0 163 -18z"/>
<path d="M18264 10292 c-21 -3 -22 -10 -29 -203 -4 -125 -3 -205 2 -210 6 -6
41 -9 79 -7 l69 3 3 128 3 129 323 -8 324 -7 7 56 c10 81 3 94 -53 101 -26 3
-186 8 -357 12 -170 4 -319 7 -330 8 -11 1 -30 0 -41 -2z"/>
<path d="M1436 9819 c7 -75 16 -99 39 -99 7 0 34 -9 61 -19 27 -11 77 -29 112
-41 43 -16 62 -27 60 -38 -2 -8 -45 -37 -97 -64 -52 -27 -107 -58 -123 -70
-29 -20 -29 -21 -23 -97 4 -42 9 -78 11 -80 3 -3 40 14 87 39 9 6 25 14 35 19
9 6 88 50 174 100 l158 90 154 12 c85 7 159 15 164 18 5 3 7 37 3 76 l-6 70
-120 -5 c-218 -9 -231 -8 -340 33 -55 21 -113 44 -130 51 -16 8 -48 19 -70 26
-22 7 -49 18 -61 25 -12 8 -38 17 -58 21 l-37 6 7 -73z"/>
<path d="M18455 9523 c-44 -4 -55 -7 -138 -49 -33 -15 -70 -42 -84 -59 -44
-51 -73 -129 -73 -193 0 -55 19 -141 39 -171 7 -11 120 -38 169 -40 16 -1 15
24 -2 38 -24 20 -57 101 -58 140 -1 108 80 171 222 171 63 0 173 -25 219 -50
62 -33 91 -78 91 -140 0 -57 -24 -103 -76 -148 -25 -21 -40 -42 -36 -48 8 -12
164 -26 178 -15 16 11 49 64 69 111 27 59 27 179 2 232 -24 51 -109 134 -160
157 -104 47 -249 73 -362 64z"/>
<path d="M2122 9250 c-89 -73 -142 -110 -158 -110 -13 0 -24 3 -24 8 0 14 -96
60 -141 67 -25 4 -72 2 -104 -4 -99 -18 -166 -81 -179 -166 -6 -38 6 -171 25
-283 l12 -63 66 5 c36 3 100 10 141 16 41 5 145 18 230 30 85 11 198 24 250
30 52 6 99 15 104 20 4 4 4 37 0 72 l-9 63 -35 3 c-19 1 -82 -4 -140 -11 -112
-15 -130 -11 -130 27 0 22 9 31 161 145 51 40 97 81 101 92 10 27 -11 169 -26
169 -6 0 -71 -50 -144 -110z m-265 -222 c18 -18 24 -36 26 -78 l2 -54 -98 -14
c-61 -9 -102 -11 -108 -5 -5 5 -10 37 -10 72 -1 45 3 67 16 81 33 37 134 36
172 -2z"/>
<path d="M18136 8928 c-3 -7 -11 -39 -19 -70 -15 -62 -9 -78 28 -78 31 -1 293
-55 301 -63 10 -10 -16 -180 -30 -200 -12 -15 -20 -15 -122 4 -60 12 -125 25
-145 31 -66 19 -82 10 -96 -52 -20 -86 -17 -91 53 -106 34 -7 88 -15 120 -19
33 -4 91 -14 129 -22 39 -8 93 -18 120 -23 28 -4 88 -16 135 -25 219 -44 218
-44 225 -7 3 15 10 42 16 60 19 61 12 66 -126 86 -69 11 -132 24 -141 30 -14
11 -14 21 2 108 9 54 22 99 29 102 6 2 69 -5 138 -17 151 -24 152 -24 162 71
4 34 5 62 3 62 -6 0 -116 19 -338 59 -124 23 -265 48 -315 57 -49 9 -98 18
-108 21 -9 2 -19 -2 -21 -9z"/>
<path d="M2315 8696 c-40 -22 -97 -53 -358 -192 -75 -41 -141 -74 -146 -74 -5
0 -11 -3 -13 -7 -1 -5 -32 -23 -68 -42 -94 -49 -97 -52 -82 -106 7 -25 12 -53
12 -63 0 -30 17 -46 52 -49 18 -1 161 -7 318 -13 157 -5 329 -12 382 -14 l97
-5 -6 37 c-3 20 -10 45 -14 54 -5 9 -9 28 -9 42 0 25 -1 25 -87 28 l-88 3 -24
93 c-22 89 -22 94 -5 113 9 10 21 19 26 19 4 0 28 9 53 21 36 17 45 26 45 47
0 43 -24 132 -35 131 -5 0 -28 -11 -50 -23z m-173 -331 c12 -73 9 -76 -102
-74 -110 1 -141 15 -98 42 59 38 145 76 168 74 21 -2 26 -9 32 -42z"/>
<path d="M18045 8201 c-60 -27 -98 -70 -123 -142 -54 -153 -17 -253 121 -333
34 -20 278 -93 377 -114 14 -2 30 -8 35 -12 6 -4 35 -13 65 -20 30 -7 63 -17
74 -22 25 -14 39 5 56 72 7 30 15 60 17 66 2 5 -20 16 -49 23 -195 48 -450
125 -506 153 -67 33 -83 102 -36 157 24 29 31 31 88 31 44 0 102 -12 197 -40
210 -63 362 -101 369 -93 3 4 14 34 24 66 18 60 12 87 -19 87 -7 0 -46 11 -88
25 -41 13 -115 34 -164 46 -48 11 -126 32 -172 45 -103 30 -208 32 -266 5z"/>
<path d="M2415 7913 c-16 -1 -171 -12 -344 -23 -173 -10 -318 -23 -322 -27 -5
-5 1 -39 13 -76 26 -80 -4 -75 298 -47 118 12 225 18 238 15 21 -5 22 -6 5
-24 -10 -10 -22 -20 -28 -22 -5 -2 -63 -40 -128 -84 -65 -44 -126 -84 -135
-90 -31 -18 -86 -58 -108 -77 l-22 -19 26 -67 c14 -37 26 -68 28 -70 1 -3 108
66 149 96 6 4 36 26 67 50 31 23 59 42 62 42 6 0 92 58 112 75 7 6 49 35 93
65 45 30 109 75 142 99 66 48 64 39 27 139 l-19 52 -62 -2 c-34 0 -75 -3 -92
-5z"/>
<path d="M17795 7586 c-28 -61 -32 -96 -11 -96 8 0 27 -7 43 -15 46 -24 141
-64 168 -71 22 -5 26 -11 23 -38 l-3 -31 -155 -27 c-85 -14 -163 -27 -172 -27
-10 -1 -23 -19 -34 -48 -10 -27 -26 -64 -35 -83 -10 -19 -14 -38 -10 -43 4 -4
72 4 152 19 79 15 165 29 190 31 l46 5 17 -47 c26 -68 82 -117 166 -149 82
-30 100 -31 155 -8 80 34 94 52 149 192 21 52 47 115 58 139 l20 45 -22 18
c-12 10 -28 18 -34 18 -7 0 -36 11 -64 25 -29 14 -56 25 -62 25 -6 0 -18 4
-28 10 -9 5 -80 34 -157 64 -133 52 -172 67 -308 122 -32 13 -60 24 -63 24 -2
0 -15 -24 -29 -54z m447 -279 c29 -13 67 -29 85 -36 17 -7 34 -20 37 -28 9
-24 -44 -113 -71 -119 -63 -16 -147 24 -158 76 -10 43 21 130 46 130 5 0 32
-11 61 -23z"/>
<path d="M2623 7522 c-54 -22 -69 -37 -56 -54 19 -26 66 -162 67 -196 l1 -35
-90 -35 c-93 -36 -328 -127 -425 -165 -30 -11 -59 -24 -64 -28 -11 -10 34
-139 49 -139 13 0 165 55 210 75 17 8 53 22 80 31 28 9 68 24 90 34 53 24 149
61 260 100 50 18 93 35 97 39 6 6 -25 104 -55 172 -8 19 -20 50 -27 69 -7 19
-21 53 -30 75 -9 22 -20 48 -23 58 -8 21 -30 21 -84 -1z"/>
<path d="M2849 7062 c-13 -9 -29 -21 -35 -27 -7 -5 -29 -23 -49 -40 -21 -16
-45 -37 -54 -46 -9 -9 -41 -34 -71 -56 -30 -23 -71 -55 -90 -73 -19 -17 -56
-48 -82 -68 -27 -20 -48 -40 -48 -44 0 -4 -4 -8 -10 -8 -5 0 -18 -8 -28 -17
-26 -26 -112 -97 -128 -106 -19 -11 -17 -25 11 -82 13 -27 25 -55 25 -61 0
-28 28 -35 87 -25 66 12 216 39 253 45 72 12 110 18 155 27 28 5 111 18 185
30 74 12 139 25 144 29 5 5 -4 36 -20 70 l-28 62 -61 -8 c-109 -13 -105 -15
-137 46 -15 30 -33 72 -39 93 -9 36 -8 39 23 65 18 15 46 39 63 54 l30 26 -30
62 c-16 34 -32 63 -36 65 -3 2 -17 -3 -30 -13z m-129 -364 c11 -18 19 -44 18
-58 -3 -23 -9 -26 -103 -41 -110 -18 -137 -12 -95 23 14 11 39 32 55 46 41 37
78 61 93 61 7 1 21 -14 32 -31z"/>
<path d="M17593 6947 c-69 -30 -108 -69 -143 -142 -46 -97 -52 -229 -12 -242
10 -3 45 -16 80 -31 34 -14 65 -23 68 -19 3 3 -2 26 -10 51 -36 107 -3 200 82
233 114 43 329 -47 401 -168 51 -88 5 -181 -116 -234 -24 -10 -43 -22 -43 -25
0 -4 36 -24 79 -44 93 -43 94 -43 168 38 34 37 56 72 69 112 21 66 25 167 6
186 -7 7 -12 18 -12 25 0 29 -66 107 -135 160 -52 39 -85 56 -186 93 -107 39
-216 41 -296 7z"/>
<path d="M17302 6473 c-20 -29 -52 -88 -52 -97 0 -4 113 -72 233 -140 27 -15
51 -35 54 -43 10 -25 -77 -183 -100 -183 -11 0 -116 57 -245 132 -26 15 -52
28 -58 28 -10 0 -74 -107 -74 -124 0 -7 72 -55 125 -81 22 -11 94 -52 160 -91
322 -189 384 -224 399 -224 9 0 20 8 23 18 4 9 17 32 30 51 13 19 23 39 23 46
0 12 -55 48 -173 115 -32 18 -61 38 -63 44 -3 7 7 32 21 56 13 25 29 54 34 65
6 11 19 31 29 44 l19 23 44 -20 c24 -12 76 -41 114 -66 39 -25 78 -45 87 -45
11 -1 26 15 38 38 11 22 24 42 30 46 5 3 10 17 10 29 0 19 -11 29 -47 46 -27
12 -54 27 -62 34 -7 6 -42 27 -76 46 -35 19 -105 59 -157 89 -51 30 -109 63
-128 74 -19 10 -40 23 -46 28 -12 10 -162 89 -168 89 -3 0 -13 -12 -24 -27z"/>
<path d="M3030 6440 c-25 -16 -51 -29 -57 -29 -7 -1 -13 -7 -13 -15 0 -8 22
-22 51 -31 97 -33 148 -103 135 -187 -13 -78 -77 -145 -193 -204 -67 -34 -85
-39 -148 -39 -84 0 -115 16 -145 76 -16 30 -20 55 -18 96 2 30 6 57 10 60 14
8 8 43 -7 43 -9 0 -34 -12 -58 -27 -23 -15 -55 -33 -71 -41 -29 -12 -29 -13
-23 -78 10 -105 86 -224 173 -271 40 -21 169 -29 236 -13 63 15 177 70 233
113 70 53 103 92 139 162 30 56 36 78 36 129 -1 96 -53 193 -136 252 -57 41
-85 42 -144 4z"/>
<path d="M3422 5282 c-3 -8 -1 -60 4 -117 5 -56 8 -109 6 -119 -4 -18 -24 -21
-50 -7 -45 25 -183 73 -196 68 -16 -6 -50 -112 -42 -132 2 -7 56 -25 120 -40
89 -21 116 -32 116 -44 0 -9 -29 -48 -64 -86 -80 -86 -94 -109 -76 -130 7 -8
19 -15 26 -15 8 0 14 -3 14 -8 0 -4 16 -16 35 -26 l34 -19 20 24 c11 13 41 61
68 107 28 48 53 81 61 80 13 -3 40 -42 77 -113 8 -16 28 -46 44 -65 27 -31 31
-33 53 -22 12 7 41 28 62 46 l39 32 -69 80 c-38 43 -77 87 -88 98 -15 15 -16
20 -5 27 8 5 22 9 32 9 11 0 49 9 85 19 37 11 79 22 93 25 15 3 29 12 32 20 9
22 -38 141 -54 138 -8 -1 -59 -21 -115 -42 -55 -22 -106 -40 -111 -40 -19 0
-22 26 -13 92 5 34 10 87 10 116 0 58 8 53 -94 56 -33 1 -50 -3 -54 -12z"/>
<path d="M16831 5258 c0 -18 4 -71 8 -118 5 -47 6 -91 4 -97 -6 -15 -27 -17
-51 -3 -9 5 -56 25 -104 43 -62 24 -90 31 -96 23 -15 -18 -44 -118 -38 -131 2
-7 56 -25 120 -40 83 -19 116 -31 116 -42 0 -13 -50 -75 -127 -161 -13 -14
-23 -30 -23 -36 1 -15 94 -81 114 -81 10 0 42 40 79 100 35 55 69 100 76 100
7 0 24 -20 38 -45 36 -65 104 -160 114 -160 13 0 119 73 119 82 0 9 -85 112
-129 156 -18 17 -31 37 -29 43 2 7 55 24 117 39 62 15 117 32 122 37 7 7 5 29
-6 64 -9 30 -19 60 -21 67 -5 17 -36 15 -81 -4 -21 -9 -47 -20 -58 -24 -11 -4
-37 -15 -58 -24 -67 -29 -82 -17 -66 50 4 22 9 74 9 117 l0 77 -75 0 -75 0 1
-32z"/>
<path d="M4590 4365 c-7 -8 -17 -15 -21 -15 -9 0 -112 -61 -169 -99 -14 -10
-50 -31 -80 -47 -30 -16 -57 -31 -60 -34 -9 -10 -208 -127 -267 -157 -18 -9
-34 -22 -37 -28 -5 -14 68 -95 85 -95 6 0 25 10 42 23 39 27 76 47 89 47 18 0
118 -104 118 -123 0 -16 -26 -65 -41 -77 -15 -12 -29 -52 -22 -63 20 -33 69
-77 82 -75 8 2 26 22 40 45 47 76 303 487 337 540 19 29 34 60 34 70 0 22 -79
103 -101 103 -9 0 -22 -7 -29 -15z m-100 -227 c0 -6 -21 -44 -47 -84 -32 -49
-54 -73 -67 -74 -22 0 -66 37 -66 55 0 17 33 44 98 81 61 35 82 41 82 22z"/>
<path d="M15520 4093 c-30 -25 -71 -59 -90 -75 -19 -16 -54 -44 -77 -61 -23
-18 -43 -38 -43 -46 0 -7 24 -40 53 -74 28 -33 61 -72 72 -87 71 -96 341 -423
353 -428 9 -3 23 4 33 16 9 12 21 22 25 22 7 0 136 103 189 152 17 15 34 28
38 28 8 0 -12 30 -56 84 -21 26 -25 28 -48 15 -13 -8 -26 -16 -29 -19 -24 -25
-119 -100 -127 -100 -22 0 -123 116 -123 141 0 8 11 23 25 34 14 11 42 35 63
52 20 18 40 33 43 33 4 0 10 7 13 16 7 17 -47 99 -71 108 -8 3 -45 -20 -87
-54 -40 -33 -79 -60 -86 -60 -19 0 -80 71 -80 92 0 10 24 36 53 59 28 23 64
51 79 63 15 11 28 27 28 34 0 21 -64 101 -80 101 -8 0 -40 -21 -70 -46z"/>
<path d="M4884 4062 c-23 -26 -57 -65 -75 -87 -19 -22 -48 -55 -65 -72 -17
-18 -49 -54 -70 -80 -22 -26 -48 -57 -59 -68 -11 -12 -45 -50 -75 -86 -30 -35
-67 -77 -82 -94 -16 -16 -28 -35 -28 -41 0 -10 54 -61 184 -174 23 -19 47 -41
54 -47 7 -7 19 -13 27 -13 13 0 85 82 85 96 0 5 -11 18 -25 30 -70 60 -125
116 -125 127 0 12 36 58 116 147 17 19 83 94 145 165 63 72 117 132 122 133
19 9 3 44 -35 76 -23 20 -44 36 -47 36 -3 -1 -25 -22 -47 -48z"/>
<path d="M15212 3840 c-12 -11 -25 -20 -30 -20 -5 0 -15 -6 -21 -13 -6 -8 -70
-54 -143 -103 -73 -49 -136 -93 -140 -99 -7 -9 23 -65 52 -97 18 -19 7 -23
118 39 48 27 38 35 142 -122 40 -60 81 -119 91 -131 11 -11 19 -24 19 -28 0
-7 52 -81 82 -117 7 -8 21 -29 30 -45 9 -16 23 -30 32 -32 20 -4 96 45 96 63
0 18 -34 79 -69 125 -15 19 -52 71 -82 115 -107 155 -153 220 -166 233 -30 31
-8 70 62 108 19 10 36 23 39 30 5 14 -64 114 -79 114 -6 0 -21 -9 -33 -20z"/>
<path d="M5232 3828 c-7 -7 -12 -18 -12 -25 0 -7 -4 -13 -8 -13 -5 0 -15 -11
-22 -25 -12 -23 -11 -27 14 -50 17 -16 24 -30 19 -38 -15 -23 -244 -328 -265
-353 -25 -27 -50 -31 -68 -9 -16 19 -32 10 -69 -41 l-29 -42 26 -24 c15 -14
45 -38 67 -54 22 -16 42 -31 45 -34 20 -20 81 -60 93 -60 14 0 67 70 67 88 0
5 -9 17 -20 27 -11 10 -20 24 -20 31 0 13 259 362 285 384 14 11 21 11 45 -3
15 -9 31 -17 34 -17 8 0 66 87 66 99 0 5 -26 28 -57 50 -64 45 -62 44 -118 89
-43 35 -55 38 -73 20z"/>
<path d="M5577 3587 c-13 -10 -277 -412 -277 -422 0 -2 -29 -47 -65 -100 -36
-54 -65 -103 -65 -110 0 -7 23 -27 50 -45 58 -37 54 -39 107 50 56 94 123 188
137 193 8 3 40 -12 71 -34 31 -21 60 -39 65 -39 20 0 9 -51 -19 -92 -73 -111
-131 -206 -131 -216 0 -14 77 -62 100 -62 11 0 23 7 27 16 3 9 20 38 37 64 17
26 60 92 95 146 34 55 100 155 145 224 98 151 110 174 103 194 -6 14 -76 56
-95 56 -8 0 -82 -103 -82 -115 0 -2 -14 -25 -32 -50 -22 -30 -39 -45 -54 -45
-26 0 -144 75 -144 92 0 11 49 93 113 187 l29 45 -23 18 c-13 9 -36 26 -50 37
-21 16 -29 18 -42 8z"/>
<path d="M14622 3448 c-35 -22 -52 -39 -52 -53 0 -11 20 -81 44 -155 24 -74
55 -173 69 -220 56 -183 110 -355 112 -358 7 -8 54 12 83 36 l33 27 -22 64
c-24 76 -17 100 37 122 19 7 40 19 46 26 22 27 62 15 106 -32 23 -25 48 -45
56 -45 20 0 98 43 103 57 3 6 -63 81 -147 165 -83 84 -205 208 -272 276 -66
67 -126 122 -132 122 -6 0 -35 -15 -64 -32z m184 -256 c105 -103 117 -134 59
-158 -20 -8 -40 -12 -44 -10 -4 3 -15 25 -23 48 -53 152 -51 179 8 120z"/>
<path d="M14235 3214 c-71 -37 -158 -81 -192 -98 l-63 -31 30 -63 c16 -34 33
-62 38 -62 5 0 34 14 65 31 65 35 87 32 108 -14 44 -94 253 -498 260 -503 4
-2 33 9 63 26 l55 31 -81 157 c-146 284 -189 375 -186 395 2 13 24 31 61 50
31 17 57 36 57 43 0 26 -48 99 -66 101 -11 1 -77 -27 -149 -63z"/>
<path d="M6130 3138 c-58 -65 -111 -123 -206 -226 -32 -35 -65 -72 -74 -82
-25 -28 -153 -171 -167 -186 -7 -7 -13 -19 -13 -26 1 -13 80 -58 102 -58 7 1
27 18 43 39 17 21 40 45 52 55 21 15 25 15 75 -14 29 -17 60 -34 68 -39 21
-11 24 -38 11 -80 -25 -78 -21 -90 39 -122 30 -15 58 -25 61 -21 7 9 28 80 44
152 12 52 65 254 87 330 5 19 12 50 15 68 3 17 9 32 14 32 5 0 9 15 9 33 0 17
7 52 16 76 18 54 15 63 -33 95 -70 46 -81 44 -143 -26z m0 -219 c0 -12 -4 -38
-10 -58 -5 -20 -14 -55 -20 -78 -8 -33 -16 -43 -31 -43 -28 0 -79 28 -79 43 0
15 118 157 131 157 5 0 9 -10 9 -21z"/>
<path d="M6526 2958 c-11 -24 -39 -86 -63 -138 -25 -52 -64 -140 -88 -195 -24
-55 -55 -122 -70 -150 -32 -59 -65 -144 -65 -166 0 -16 63 -49 93 -49 11 0 53
82 131 255 53 118 61 135 67 135 15 0 18 -35 10 -98 -25 -172 -21 -194 36
-208 21 -6 33 3 86 62 90 100 114 124 126 124 18 0 13 -16 -33 -113 -24 -50
-50 -108 -59 -127 -8 -19 -27 -61 -42 -93 -15 -32 -25 -63 -22 -70 2 -7 17
-18 33 -26 16 -7 37 -17 46 -22 28 -14 35 -11 49 24 7 17 32 73 57 122 24 50
55 118 68 152 13 34 35 84 48 110 13 26 33 68 44 93 11 25 34 76 52 113 17 37
28 71 26 76 -7 11 -113 61 -130 61 -8 0 -31 -19 -52 -42 -126 -142 -200 -218
-211 -218 -16 0 -16 9 3 155 8 66 17 143 20 170 l6 50 -66 28 c-36 15 -69 27
-74 27 -4 0 -16 -19 -26 -42z"/>
<path d="M13780 2983 c-90 -33 -139 -71 -170 -131 -19 -36 -22 -54 -18 -110 9
-113 63 -193 158 -234 40 -17 52 -18 133 -8 101 14 131 9 149 -23 29 -53 -3
-116 -70 -138 -34 -11 -132 -8 -179 7 -17 5 -23 2 -23 -10 0 -9 3 -16 8 -16 4
0 23 -29 41 -65 19 -36 43 -67 53 -71 9 -3 43 0 75 5 205 38 299 194 215 356
-72 138 -119 159 -313 140 -74 -8 -76 -7 -97 20 -30 38 -28 69 9 108 30 31 33
32 121 33 49 1 91 4 94 6 2 3 -10 35 -27 72 l-31 66 -56 -1 c-32 0 -64 -3 -72
-6z"/>
<path d="M7174 2704 c-3 -11 -9 -27 -14 -36 -10 -18 -41 -102 -69 -188 -10
-30 -33 -93 -51 -140 -75 -200 -120 -335 -115 -347 2 -7 11 -13 20 -13 13 0
54 -15 235 -85 19 -8 49 -17 66 -20 29 -6 32 -4 38 27 20 95 19 106 -6 113
-77 22 -178 69 -178 83 0 18 48 142 61 158 10 12 44 8 64 -6 13 -10 137 -52
140 -48 6 6 45 114 45 124 0 11 -17 18 -142 61 -55 18 -59 34 -32 103 20 49
31 50 131 10 100 -40 110 -39 133 13 32 70 28 83 -37 107 -32 11 -67 24 -78
29 -11 5 -55 21 -98 36 -43 14 -85 29 -92 32 -9 3 -17 -2 -21 -13z"/>
<path d="M13053 2671 c-29 -9 -55 -19 -58 -22 -5 -6 5 -137 41 -514 9 -88 18
-188 21 -222 l6 -61 61 21 c33 12 64 26 67 30 3 5 2 31 -3 58 -16 89 -11 98
62 125 36 13 71 24 79 24 18 0 51 -36 76 -83 11 -20 26 -37 35 -37 28 0 110
34 110 46 0 6 -22 45 -48 85 -27 41 -70 108 -96 149 -27 41 -56 86 -65 99 -9
13 -20 31 -26 40 -5 9 -20 31 -32 48 -13 17 -23 34 -23 38 0 3 -19 33 -42 67
-24 33 -48 68 -53 78 -33 55 -36 56 -112 31z m126 -280 c12 -16 21 -32 21 -36
0 -3 11 -21 24 -38 13 -18 27 -42 31 -55 5 -19 1 -25 -30 -38 -63 -26 -69 -20
-81 81 -15 121 -5 143 35 86z"/>
<path d="M12755 2563 c-11 -2 -56 -15 -100 -28 -44 -13 -101 -27 -127 -30 -27
-4 -48 -11 -48 -16 0 -5 -8 -9 -17 -9 -23 0 -84 -17 -101 -29 -12 -7 -11 -19
4 -70 21 -69 25 -71 111 -44 46 15 55 15 67 2 8 -8 35 -95 60 -194 61 -242
100 -373 113 -386 8 -8 27 -6 68 5 44 13 55 20 51 34 -2 9 -12 49 -21 87 -9
39 -35 133 -57 210 -57 198 -76 278 -71 291 2 6 33 19 69 29 36 10 68 23 70
29 8 21 -23 121 -37 122 -8 1 -23 0 -34 -3z"/>
<path d="M7954 2413 c-16 -27 -33 -56 -39 -65 -5 -9 -20 -34 -31 -55 -12 -21
-30 -54 -41 -73 -11 -19 -40 -70 -64 -113 -24 -43 -48 -86 -54 -95 -11 -19
-68 -121 -109 -195 l-26 -47 23 -9 c31 -12 92 -31 99 -31 3 0 20 29 38 65 26
52 38 65 56 65 25 0 128 -25 144 -35 6 -3 10 -42 10 -86 0 -89 0 -89 86 -103
l41 -7 12 218 c23 409 26 488 21 532 l-5 44 -65 18 c-36 10 -66 18 -67 19 0 0
-14 -21 -29 -47z m27 -322 c-7 -45 -10 -85 -7 -89 12 -20 -13 -34 -47 -28 -63
12 -65 26 -17 119 23 45 48 85 54 89 23 15 28 -12 17 -91z"/>
<path d="M12013 2373 c-43 -6 -54 -22 -44 -64 10 -37 36 -164 52 -244 5 -27
16 -84 25 -125 9 -41 22 -106 29 -145 17 -87 41 -184 48 -191 3 -3 65 7 138
22 74 15 151 29 172 32 35 4 37 6 37 41 0 46 -18 111 -31 111 -5 0 -42 -6 -82
-14 -124 -24 -127 -25 -137 -7 -4 9 -18 64 -29 121 -12 58 -30 148 -41 200
-22 99 -50 249 -50 263 0 7 -28 7 -87 0z"/>
<path d="M8513 2326 c-94 -30 -155 -88 -201 -189 -104 -227 -86 -452 44 -551
26 -20 55 -36 65 -36 10 0 21 -5 25 -11 9 -15 198 -7 217 9 14 12 37 102 72
280 20 97 15 107 -48 115 -23 3 -69 10 -101 16 -33 6 -61 9 -64 7 -7 -8 -30
-121 -26 -126 3 -3 24 -10 47 -16 39 -10 42 -12 41 -45 -1 -19 -7 -53 -13 -77
-12 -42 -12 -43 -49 -36 -86 16 -132 83 -132 194 1 247 149 394 293 290 26
-18 47 -39 47 -45 0 -12 31 -45 43 -45 8 0 25 58 32 115 l6 50 -48 36 c-80 61
-181 87 -250 65z"/>
<path d="M11720 2310 c-19 -5 -48 -11 -65 -14 -144 -28 -206 -43 -215 -52 -7
-7 -5 -34 6 -84 8 -41 19 -95 24 -120 4 -25 20 -101 34 -170 24 -116 34 -163
67 -310 7 -30 16 -59 20 -64 8 -9 336 61 352 74 5 4 3 35 -4 69 l-12 62 -46
-6 c-25 -4 -59 -10 -76 -15 -53 -15 -100 -20 -111 -12 -13 8 -41 179 -31 188
4 4 44 13 89 21 106 18 112 24 97 94 -7 30 -15 57 -18 61 -3 4 -48 -2 -100
-13 -68 -14 -97 -16 -107 -8 -13 10 -31 115 -22 125 7 6 41 13 103 21 28 3 65
13 84 20 36 15 35 13 15 116 -6 29 -19 32 -84 17z"/>
<path d="M8931 2094 c-13 -88 -29 -202 -36 -254 -7 -52 -19 -135 -26 -185 -7
-49 -13 -108 -13 -130 l-1 -40 90 -12 c210 -27 284 -11 332 71 33 57 38 76 38
157 0 83 -1 87 -32 123 -18 20 -33 39 -33 43 0 3 13 20 29 39 52 59 68 178 33
244 -32 58 -96 80 -283 96 l-75 7 -23 -159z m243 -26 c48 -68 -13 -159 -91
-135 -29 9 -33 14 -33 45 0 19 5 52 12 73 11 37 13 39 54 39 33 0 46 -5 58
-22z m-53 -278 c56 -16 77 -86 44 -149 -17 -34 -33 -41 -88 -41 -67 0 -71 6
-64 100 4 44 9 85 12 91 8 12 50 12 96 -1z"/>
<path d="M10975 2199 c-133 -20 -125 -17 -125 -52 0 -18 7 -84 16 -147 8 -63
19 -149 24 -190 39 -331 50 -396 66 -394 5 1 56 7 114 14 176 20 223 47 281
165 32 67 34 75 34 180 0 169 -42 285 -135 368 -74 66 -128 77 -275 56z m165
-152 c65 -33 118 -182 107 -303 -10 -105 -49 -155 -129 -168 -52 -9 -68 8 -68
71 0 24 -4 63 -9 86 -18 79 -44 295 -38 311 8 20 99 22 137 3z"/>
<path d="M9615 2174 c-78 -40 -146 -140 -174 -257 -14 -60 -14 -263 0 -308 30
-92 59 -138 112 -178 50 -38 58 -41 120 -41 36 0 78 5 94 11 49 18 108 75 135
130 40 83 46 101 59 189 30 205 -26 381 -140 444 -58 31 -156 36 -206 10z
m133 -135 c80 -28 103 -233 46 -411 -19 -58 -63 -98 -108 -98 -78 0 -116 72
-116 220 0 181 50 296 131 299 9 1 30 -4 47 -10z"/>
<path d="M10099 2160 c-6 -4 -8 -148 -7 -386 l3 -379 68 -3 67 -3 0 140 c0
134 1 140 22 146 24 8 40 -9 82 -89 14 -28 44 -82 65 -121 l39 -70 81 -3 c45
-2 81 0 81 3 0 3 -11 23 -25 45 -14 22 -25 42 -25 45 0 2 -27 50 -60 105 -33
55 -60 109 -60 119 0 10 14 36 31 57 41 50 55 86 64 155 13 104 -36 204 -112
227 -40 12 -297 22 -314 12z m261 -155 c23 -21 28 -107 8 -150 -11 -25 -18
-28 -89 -40 -46 -7 -49 0 -49 105 0 109 2 113 62 108 27 -3 57 -13 68 -23z"/>
</g>
</svg>
